<?xml version="1.0" encoding="utf-8"?>
<!-- Generator: Adobe Illustrator 27.1.1, SVG Export Plug-In . SVG Version: 6.00 Build 0)  -->
<svg version="1.1" id="Layer_1" xmlns="http://www.w3.org/2000/svg" xmlns:xlink="http://www.w3.org/1999/xlink" x="0px" y="0px"
	 viewBox="0 0 1080 1080" style="enable-background:new 0 0 1080 1080;" xml:space="preserve">
<style type="text/css">
	.st0{clip-path:url(#SVGID_00000114766046802369737160000016478835468743944340_);}
	.st1{fill:#151515;}
	.st2{fill:#FFFFFF;}
	.st3{fill:#FF1E1E;}
	.st4{fill-rule:evenodd;clip-rule:evenodd;fill:#323232;}
</style>
<g>
	<defs>
		<rect id="SVGID_1_" y="0" width="1080" height="1080"/>
	</defs>
	<clipPath id="SVGID_00000095332186741576506060000000939451941840393138_">
		<use xlink:href="#SVGID_1_"  style="overflow:visible;"/>
	</clipPath>
	<g style="clip-path:url(#SVGID_00000095332186741576506060000000939451941840393138_);">
		<path d="M1080,0H0v1080h1080V0z"/>
		<path class="st1" d="M782.4,241.9H297.6v596h484.8V241.9z"/>
		<path class="st2" d="M356,284.4c0-2.3-1.3-4.3-3.2-5.3c0.2-0.6,0.4-1.3,0.4-2.1c0-3.2-2.5-5.9-5.6-5.9c-0.7,0-1.4,0.1-2,0.4
			c-0.9-2-2.8-3.3-5.1-3.3s-4.1,1.3-5.1,3.3c-0.6-0.2-1.3-0.4-2-0.4c-3.1,0-5.6,2.6-5.6,5.9c0,0.7,0.1,1.4,0.3,2.1
			c-1.9,1-3.2,3-3.2,5.3c0,2.2,1.1,4.1,2.9,5.1c0,0.2,0,0.5,0,0.8c0,3.2,2.5,5.9,5.6,5.9c0.7,0,1.4-0.1,2-0.4c0.9,2,2.8,3.3,5.1,3.3
			c2.2,0,4.1-1.3,5.1-3.3c0.6,0.2,1.3,0.4,2,0.4c3.1,0,5.6-2.6,5.6-5.9c0-0.3,0-0.5,0-0.8C354.8,288.5,356,286.6,356,284.4
			L356,284.4z M346.2,279.5l-6.4,9.6c-0.2,0.3-0.6,0.5-0.9,0.5c-0.2,0-0.4-0.1-0.6-0.2l-0.2-0.1l-3.6-3.5c-0.4-0.4-0.4-1.1,0-1.6
			c0.4-0.4,1.1-0.4,1.6,0l2.6,2.6l5.6-8.4c0.3-0.5,1-0.6,1.5-0.3C346.4,278.3,346.6,279,346.2,279.5L346.2,279.5z"/>
		<path class="st2" d="M356,455.3c0-2.3-1.3-4.3-3.2-5.3c0.2-0.6,0.4-1.3,0.4-2.1c0-3.2-2.5-5.9-5.6-5.9c-0.7,0-1.4,0.1-2,0.4
			c-0.9-2-2.8-3.3-5.1-3.3s-4.1,1.3-5.1,3.3c-0.6-0.2-1.3-0.4-2-0.4c-3.1,0-5.6,2.6-5.6,5.9c0,0.7,0.1,1.4,0.3,2.1
			c-1.9,1-3.2,3-3.2,5.3c0,2.2,1.1,4.1,2.9,5.1c0,0.2,0,0.5,0,0.8c0,3.2,2.5,5.9,5.6,5.9c0.7,0,1.4-0.1,2-0.4c0.9,2,2.8,3.3,5.1,3.3
			c2.2,0,4.1-1.3,5.1-3.3c0.6,0.2,1.3,0.4,2,0.4c3.1,0,5.6-2.6,5.6-5.9c0-0.3,0-0.5,0-0.8C354.8,459.4,356,457.5,356,455.3
			L356,455.3z M346.2,450.4l-6.4,9.6c-0.2,0.3-0.6,0.5-0.9,0.5c-0.2,0-0.4-0.1-0.6-0.2l-0.2-0.1l-3.6-3.5c-0.4-0.4-0.4-1.1,0-1.6
			c0.4-0.4,1.1-0.4,1.6,0l2.6,2.6l5.6-8.4c0.3-0.5,1-0.6,1.5-0.3C346.4,449.2,346.6,449.9,346.2,450.4L346.2,450.4z"/>
		<path class="st2" d="M356,626.1c0-2.3-1.3-4.3-3.2-5.3c0.2-0.6,0.4-1.3,0.4-2.1c0-3.2-2.5-5.9-5.6-5.9c-0.7,0-1.4,0.1-2,0.4
			c-0.9-2-2.8-3.3-5.1-3.3s-4.1,1.3-5.1,3.3c-0.6-0.2-1.3-0.4-2-0.4c-3.1,0-5.6,2.6-5.6,5.9c0,0.7,0.1,1.4,0.3,2.1
			c-1.9,1-3.2,3-3.2,5.3c0,2.2,1.1,4.1,2.9,5.1c0,0.2,0,0.5,0,0.8c0,3.2,2.5,5.9,5.6,5.9c0.7,0,1.4-0.1,2-0.4c0.9,2,2.8,3.3,5.1,3.3
			c2.2,0,4.1-1.3,5.1-3.3c0.6,0.2,1.3,0.4,2,0.4c3.1,0,5.6-2.6,5.6-5.9c0-0.3,0-0.5,0-0.8C354.8,630.2,356,628.3,356,626.1z
			 M346.2,621.2l-6.4,9.6c-0.2,0.3-0.6,0.5-0.9,0.5c-0.2,0-0.4-0.1-0.6-0.2l-0.2-0.1l-3.6-3.6c-0.4-0.4-0.4-1.1,0-1.6
			c0.4-0.4,1.1-0.4,1.6,0l2.6,2.6l5.6-8.4c0.3-0.5,1-0.6,1.5-0.3C346.4,620,346.6,620.7,346.2,621.2z"/>
		<path class="st2" d="M356,341.4c0-2.3-1.3-4.3-3.2-5.3c0.2-0.6,0.4-1.3,0.4-2.1c0-3.2-2.5-5.9-5.6-5.9c-0.7,0-1.4,0.1-2,0.4
			c-0.9-2-2.8-3.3-5.1-3.3s-4.1,1.3-5.1,3.3c-0.6-0.2-1.3-0.4-2-0.4c-3.1,0-5.6,2.6-5.6,5.9c0,0.7,0.1,1.4,0.3,2.1
			c-1.9,1-3.2,3-3.2,5.3c0,2.2,1.1,4.1,2.9,5.1c0,0.2,0,0.5,0,0.8c0,3.2,2.5,5.9,5.6,5.9c0.7,0,1.4-0.1,2-0.4c0.9,2,2.8,3.3,5.1,3.3
			c2.2,0,4.1-1.3,5.1-3.3c0.6,0.2,1.3,0.4,2,0.4c3.1,0,5.6-2.6,5.6-5.9c0-0.3,0-0.5,0-0.8C354.8,345.5,356,343.6,356,341.4
			L356,341.4z M346.2,336.5l-6.4,9.6c-0.2,0.3-0.6,0.5-0.9,0.5c-0.2,0-0.4-0.1-0.6-0.2l-0.2-0.1l-3.6-3.5c-0.4-0.4-0.4-1.1,0-1.6
			c0.4-0.4,1.1-0.4,1.6,0l2.6,2.6l5.6-8.4c0.3-0.5,1-0.6,1.5-0.3C346.4,335.3,346.6,336,346.2,336.5L346.2,336.5z"/>
		<path class="st2" d="M356,512.2c0-2.3-1.3-4.3-3.2-5.3c0.2-0.6,0.4-1.3,0.4-2.1c0-3.2-2.5-5.9-5.6-5.9c-0.7,0-1.4,0.1-2,0.4
			c-0.9-2-2.8-3.3-5.1-3.3s-4.1,1.3-5.1,3.3c-0.6-0.2-1.3-0.4-2-0.4c-3.1,0-5.6,2.6-5.6,5.9c0,0.7,0.1,1.4,0.3,2.1
			c-1.9,1-3.2,3-3.2,5.3c0,2.2,1.1,4.1,2.9,5.1c0,0.2,0,0.5,0,0.8c0,3.2,2.5,5.9,5.6,5.9c0.7,0,1.4-0.1,2-0.4c0.9,2,2.8,3.3,5.1,3.3
			c2.2,0,4.1-1.3,5.1-3.3c0.6,0.2,1.3,0.4,2,0.4c3.1,0,5.6-2.6,5.6-5.9c0-0.3,0-0.5,0-0.8C354.8,516.3,356,514.4,356,512.2
			L356,512.2z M346.2,507.3l-6.4,9.6c-0.2,0.3-0.6,0.5-0.9,0.5c-0.2,0-0.4-0.1-0.6-0.2l-0.2-0.1l-3.6-3.5c-0.4-0.4-0.4-1.1,0-1.6
			c0.4-0.4,1.1-0.4,1.6,0l2.6,2.6l5.6-8.4c0.3-0.5,1-0.6,1.5-0.3C346.4,506.1,346.6,506.8,346.2,507.3L346.2,507.3z"/>
		<path class="st2" d="M356,683c0-2.3-1.3-4.3-3.2-5.3c0.2-0.6,0.4-1.3,0.4-2.1c0-3.2-2.5-5.9-5.6-5.9c-0.7,0-1.4,0.1-2,0.4
			c-0.9-2-2.8-3.3-5.1-3.3s-4.1,1.3-5.1,3.3c-0.6-0.2-1.3-0.4-2-0.4c-3.1,0-5.6,2.6-5.6,5.9c0,0.7,0.1,1.4,0.3,2.1
			c-1.9,1-3.2,3-3.2,5.3c0,2.2,1.1,4.1,2.9,5.1c0,0.2,0,0.5,0,0.8c0,3.2,2.5,5.9,5.6,5.9c0.7,0,1.4-0.1,2-0.4c0.9,2,2.8,3.3,5.1,3.3
			c2.2,0,4.1-1.3,5.1-3.3c0.6,0.2,1.3,0.4,2,0.4c3.1,0,5.6-2.6,5.6-5.9c0-0.3,0-0.5,0-0.8C354.8,687.1,356,685.2,356,683L356,683z
			 M346.2,678.1l-6.4,9.5c-0.2,0.3-0.6,0.5-0.9,0.5c-0.2,0-0.4-0.1-0.6-0.2l-0.2-0.1l-3.6-3.5c-0.4-0.4-0.4-1.1,0-1.6
			c0.4-0.4,1.1-0.4,1.6,0l2.6,2.6l5.6-8.4c0.3-0.5,1-0.6,1.5-0.3C346.4,676.9,346.6,677.6,346.2,678.1L346.2,678.1z"/>
		<path class="st2" d="M356,398.3c0-2.3-1.3-4.3-3.2-5.3c0.2-0.6,0.4-1.3,0.4-2.1c0-3.2-2.5-5.9-5.6-5.9c-0.7,0-1.4,0.1-2,0.4
			c-0.9-2-2.8-3.3-5.1-3.3s-4.1,1.3-5.1,3.3c-0.6-0.2-1.3-0.4-2-0.4c-3.1,0-5.6,2.6-5.6,5.9c0,0.7,0.1,1.4,0.3,2.1
			c-1.9,1-3.2,3-3.2,5.3c0,2.2,1.1,4.1,2.9,5.1c0,0.2,0,0.5,0,0.8c0,3.2,2.5,5.9,5.6,5.9c0.7,0,1.4-0.1,2-0.4c0.9,2,2.8,3.3,5.1,3.3
			c2.2,0,4.1-1.3,5.1-3.3c0.6,0.2,1.3,0.4,2,0.4c3.1,0,5.6-2.6,5.6-5.9c0-0.3,0-0.5,0-0.8C354.8,402.5,356,400.5,356,398.3
			L356,398.3z M346.2,393.4l-6.4,9.6c-0.2,0.3-0.6,0.5-0.9,0.5c-0.2,0-0.4-0.1-0.6-0.2l-0.2-0.1l-3.6-3.5c-0.4-0.4-0.4-1.1,0-1.6
			c0.4-0.4,1.1-0.4,1.6,0l2.6,2.6l5.6-8.4c0.3-0.5,1-0.6,1.5-0.3C346.4,392.2,346.6,392.9,346.2,393.4L346.2,393.4z"/>
		<path class="st2" d="M356,569.2c0-2.3-1.3-4.3-3.2-5.3c0.2-0.6,0.4-1.3,0.4-2.1c0-3.2-2.5-5.9-5.6-5.9c-0.7,0-1.4,0.1-2,0.4
			c-0.9-2-2.8-3.3-5.1-3.3s-4.1,1.3-5.1,3.3c-0.6-0.2-1.3-0.4-2-0.4c-3.1,0-5.6,2.6-5.6,5.9c0,0.7,0.1,1.4,0.3,2.1
			c-1.9,1-3.2,3-3.2,5.3c0,2.2,1.1,4.1,2.9,5.1c0,0.2,0,0.5,0,0.8c0,3.2,2.5,5.9,5.6,5.9c0.7,0,1.4-0.1,2-0.4c0.9,2,2.8,3.3,5.1,3.3
			c2.2,0,4.1-1.3,5.1-3.3c0.6,0.2,1.3,0.4,2,0.4c3.1,0,5.6-2.6,5.6-5.9c0-0.3,0-0.5,0-0.8C354.8,573.3,356,571.4,356,569.2
			L356,569.2z M346.2,564.3l-6.4,9.5c-0.2,0.3-0.6,0.5-0.9,0.5c-0.2,0-0.4-0.1-0.6-0.2l-0.2-0.1l-3.6-3.5c-0.4-0.4-0.4-1.1,0-1.6
			c0.4-0.4,1.1-0.4,1.6,0l2.6,2.6l5.6-8.4c0.3-0.5,1-0.6,1.5-0.3C346.4,563.1,346.6,563.8,346.2,564.3L346.2,564.3z"/>
		<path class="st2" d="M356,739.9c0-2.3-1.3-4.3-3.2-5.3c0.2-0.6,0.4-1.3,0.4-2.1c0-3.2-2.5-5.9-5.6-5.9c-0.7,0-1.4,0.1-2,0.4
			c-0.9-2-2.8-3.3-5.1-3.3s-4.1,1.3-5.1,3.3c-0.6-0.2-1.3-0.4-2-0.4c-3.1,0-5.6,2.6-5.6,5.9c0,0.7,0.1,1.4,0.3,2.1
			c-1.9,1-3.2,3-3.2,5.3c0,2.2,1.1,4.1,2.9,5.1c0,0.2,0,0.5,0,0.8c0,3.2,2.5,5.9,5.6,5.9c0.7,0,1.4-0.1,2-0.4c0.9,2,2.8,3.3,5.1,3.3
			c2.2,0,4.1-1.3,5.1-3.3c0.6,0.2,1.3,0.4,2,0.4c3.1,0,5.6-2.6,5.6-5.9c0-0.3,0-0.5,0-0.8C354.8,744,356,742.1,356,739.9z
			 M346.2,735l-6.4,9.6c-0.2,0.3-0.6,0.5-0.9,0.5c-0.2,0-0.4-0.1-0.6-0.2l-0.2-0.1l-3.6-3.6c-0.4-0.4-0.4-1.1,0-1.6
			c0.4-0.4,1.1-0.4,1.6,0l2.6,2.6l5.6-8.4c0.3-0.5,1-0.6,1.5-0.3C346.4,733.8,346.6,734.5,346.2,735z"/>
		<path class="st2" d="M356,796.9c0-2.3-1.3-4.3-3.2-5.3c0.2-0.6,0.4-1.3,0.4-2.1c0-3.2-2.5-5.9-5.6-5.9c-0.7,0-1.4,0.1-2,0.4
			c-0.9-2-2.8-3.3-5.1-3.3s-4.1,1.3-5.1,3.3c-0.6-0.2-1.3-0.4-2-0.4c-3.1,0-5.6,2.6-5.6,5.9c0,0.7,0.1,1.4,0.3,2.1
			c-1.9,1-3.2,3-3.2,5.3c0,2.2,1.1,4.1,2.9,5.1c0,0.2,0,0.5,0,0.8c0,3.2,2.5,5.9,5.6,5.9c0.7,0,1.4-0.1,2-0.4c0.9,2,2.8,3.3,5.1,3.3
			c2.2,0,4.1-1.3,5.1-3.3c0.6,0.2,1.3,0.4,2,0.4c3.1,0,5.6-2.6,5.6-5.9c0-0.3,0-0.5,0-0.8C354.8,801,356,799.1,356,796.9z
			 M346.2,792l-6.4,9.5c-0.2,0.3-0.6,0.5-0.9,0.5c-0.2,0-0.4-0.1-0.6-0.2l-0.2-0.1l-3.6-3.6c-0.4-0.4-0.4-1.1,0-1.6
			c0.4-0.4,1.1-0.4,1.6,0l2.6,2.6l5.6-8.4c0.3-0.5,1-0.6,1.5-0.3C346.4,790.8,346.6,791.5,346.2,792z"/>
		<path class="st2" d="M470,284.4c0-2.3-1.3-4.3-3.2-5.3c0.2-0.6,0.4-1.3,0.4-2.1c0-3.2-2.5-5.9-5.6-5.9c-0.7,0-1.4,0.1-2,0.4
			c-0.9-2-2.8-3.3-5.1-3.3s-4.1,1.3-5.1,3.3c-0.6-0.2-1.3-0.4-2-0.4c-3.1,0-5.6,2.6-5.6,5.9c0,0.7,0.1,1.4,0.3,2.1
			c-1.9,1-3.2,3-3.2,5.3c0,2.2,1.1,4.1,2.9,5.1c0,0.2,0,0.5,0,0.8c0,3.2,2.5,5.9,5.6,5.9c0.7,0,1.4-0.1,2-0.4c0.9,2,2.8,3.3,5.1,3.3
			c2.2,0,4.1-1.3,5.1-3.3c0.6,0.2,1.3,0.4,2,0.4c3.1,0,5.6-2.6,5.6-5.9c0-0.3,0-0.5,0-0.8C468.9,288.5,470,286.6,470,284.4
			L470,284.4z M460.3,279.5l-6.4,9.6c-0.2,0.3-0.6,0.5-0.9,0.5c-0.2,0-0.4-0.1-0.6-0.2l-0.2-0.1l-3.6-3.5c-0.4-0.4-0.4-1.1,0-1.6
			c0.4-0.4,1.1-0.4,1.6,0l2.6,2.6l5.6-8.4c0.3-0.5,1-0.6,1.5-0.3C460.5,278.3,460.6,279,460.3,279.5L460.3,279.5z"/>
		<path class="st2" d="M470,455.3c0-2.3-1.3-4.3-3.2-5.3c0.2-0.6,0.4-1.3,0.4-2.1c0-3.2-2.5-5.9-5.6-5.9c-0.7,0-1.4,0.1-2,0.4
			c-0.9-2-2.8-3.3-5.1-3.3s-4.1,1.3-5.1,3.3c-0.6-0.2-1.3-0.4-2-0.4c-3.1,0-5.6,2.6-5.6,5.9c0,0.7,0.1,1.4,0.3,2.1
			c-1.9,1-3.2,3-3.2,5.3c0,2.2,1.1,4.1,2.9,5.1c0,0.2,0,0.5,0,0.8c0,3.2,2.5,5.9,5.6,5.9c0.7,0,1.4-0.1,2-0.4c0.9,2,2.8,3.3,5.1,3.3
			c2.2,0,4.1-1.3,5.1-3.3c0.6,0.2,1.3,0.4,2,0.4c3.1,0,5.6-2.6,5.6-5.9c0-0.3,0-0.5,0-0.8C468.9,459.4,470,457.5,470,455.3
			L470,455.3z M460.3,450.4l-6.4,9.6c-0.2,0.3-0.6,0.5-0.9,0.5c-0.2,0-0.4-0.1-0.6-0.2l-0.2-0.1l-3.6-3.5c-0.4-0.4-0.4-1.1,0-1.6
			c0.4-0.4,1.1-0.4,1.6,0l2.6,2.6l5.6-8.4c0.3-0.5,1-0.6,1.5-0.3C460.5,449.2,460.6,449.9,460.3,450.4L460.3,450.4z"/>
		<path class="st2" d="M470,626.1c0-2.3-1.3-4.3-3.2-5.3c0.2-0.6,0.4-1.3,0.4-2.1c0-3.2-2.5-5.9-5.6-5.9c-0.7,0-1.4,0.1-2,0.4
			c-0.9-2-2.8-3.3-5.1-3.3s-4.1,1.3-5.1,3.3c-0.6-0.2-1.3-0.4-2-0.4c-3.1,0-5.6,2.6-5.6,5.9c0,0.7,0.1,1.4,0.3,2.1
			c-1.9,1-3.2,3-3.2,5.3c0,2.2,1.1,4.1,2.9,5.1c0,0.2,0,0.5,0,0.8c0,3.2,2.5,5.9,5.6,5.9c0.7,0,1.4-0.1,2-0.4c0.9,2,2.8,3.3,5.1,3.3
			c2.2,0,4.1-1.3,5.1-3.3c0.6,0.2,1.3,0.4,2,0.4c3.1,0,5.6-2.6,5.6-5.9c0-0.3,0-0.5,0-0.8C468.9,630.2,470,628.3,470,626.1z
			 M460.3,621.2l-6.4,9.6c-0.2,0.3-0.6,0.5-0.9,0.5c-0.2,0-0.4-0.1-0.6-0.2l-0.2-0.1l-3.6-3.6c-0.4-0.4-0.4-1.1,0-1.6
			c0.4-0.4,1.1-0.4,1.6,0l2.6,2.6l5.6-8.4c0.3-0.5,1-0.6,1.5-0.3C460.5,620,460.6,620.7,460.3,621.2z"/>
		<path class="st2" d="M470,341.4c0-2.3-1.3-4.3-3.2-5.3c0.2-0.6,0.4-1.3,0.4-2.1c0-3.2-2.5-5.9-5.6-5.9c-0.7,0-1.4,0.1-2,0.4
			c-0.9-2-2.8-3.3-5.1-3.3s-4.1,1.3-5.1,3.3c-0.6-0.2-1.3-0.4-2-0.4c-3.1,0-5.6,2.6-5.6,5.9c0,0.7,0.1,1.4,0.3,2.1
			c-1.9,1-3.2,3-3.2,5.3c0,2.2,1.1,4.1,2.9,5.1c0,0.2,0,0.5,0,0.8c0,3.2,2.5,5.9,5.6,5.9c0.7,0,1.4-0.1,2-0.4c0.9,2,2.8,3.3,5.1,3.3
			c2.2,0,4.1-1.3,5.1-3.3c0.6,0.2,1.3,0.4,2,0.4c3.1,0,5.6-2.6,5.6-5.9c0-0.3,0-0.5,0-0.8C468.9,345.5,470,343.6,470,341.4
			L470,341.4z M460.3,336.5l-6.4,9.6c-0.2,0.3-0.6,0.5-0.9,0.5c-0.2,0-0.4-0.1-0.6-0.2l-0.2-0.1l-3.6-3.5c-0.4-0.4-0.4-1.1,0-1.6
			c0.4-0.4,1.1-0.4,1.6,0l2.6,2.6l5.6-8.4c0.3-0.5,1-0.6,1.5-0.3C460.5,335.3,460.6,336,460.3,336.5L460.3,336.5z"/>
		<path class="st3" d="M470,512.2c0-2.3-1.3-4.3-3.2-5.3c0.2-0.6,0.4-1.3,0.4-2.1c0-3.2-2.5-5.9-5.6-5.9c-0.7,0-1.4,0.1-2,0.4
			c-0.9-2-2.8-3.3-5.1-3.3s-4.1,1.3-5.1,3.3c-0.6-0.2-1.3-0.4-2-0.4c-3.1,0-5.6,2.6-5.6,5.9c0,0.7,0.1,1.4,0.3,2.1
			c-1.9,1-3.2,3-3.2,5.3c0,2.2,1.1,4.1,2.9,5.1c0,0.2,0,0.5,0,0.8c0,3.2,2.5,5.9,5.6,5.9c0.7,0,1.4-0.1,2-0.4c0.9,2,2.8,3.3,5.1,3.3
			c2.2,0,4.1-1.3,5.1-3.3c0.6,0.2,1.3,0.4,2,0.4c3.1,0,5.6-2.6,5.6-5.9c0-0.3,0-0.5,0-0.8C468.9,516.3,470,514.4,470,512.2
			L470,512.2z M460.3,507.3l-6.4,9.6c-0.2,0.3-0.6,0.5-0.9,0.5c-0.2,0-0.4-0.1-0.6-0.2l-0.2-0.1l-3.6-3.5c-0.4-0.4-0.4-1.1,0-1.6
			c0.4-0.4,1.1-0.4,1.6,0l2.6,2.6l5.6-8.4c0.3-0.5,1-0.6,1.5-0.3C460.5,506.1,460.6,506.8,460.3,507.3L460.3,507.3z"/>
		<path class="st2" d="M470,683c0-2.3-1.3-4.3-3.2-5.3c0.2-0.6,0.4-1.3,0.4-2.1c0-3.2-2.5-5.9-5.6-5.9c-0.7,0-1.4,0.1-2,0.4
			c-0.9-2-2.8-3.3-5.1-3.3s-4.1,1.3-5.1,3.3c-0.6-0.2-1.3-0.4-2-0.4c-3.1,0-5.6,2.6-5.6,5.9c0,0.7,0.1,1.4,0.3,2.1
			c-1.9,1-3.2,3-3.2,5.3c0,2.2,1.1,4.1,2.9,5.1c0,0.2,0,0.5,0,0.8c0,3.2,2.5,5.9,5.6,5.9c0.7,0,1.4-0.1,2-0.4c0.9,2,2.8,3.3,5.1,3.3
			c2.2,0,4.1-1.3,5.1-3.3c0.6,0.2,1.3,0.4,2,0.4c3.1,0,5.6-2.6,5.6-5.9c0-0.3,0-0.5,0-0.8C468.9,687.1,470,685.2,470,683L470,683z
			 M460.3,678.1l-6.4,9.5c-0.2,0.3-0.6,0.5-0.9,0.5c-0.2,0-0.4-0.1-0.6-0.2l-0.2-0.1l-3.6-3.5c-0.4-0.4-0.4-1.1,0-1.6
			c0.4-0.4,1.1-0.4,1.6,0l2.6,2.6l5.6-8.4c0.3-0.5,1-0.6,1.5-0.3C460.5,676.9,460.6,677.6,460.3,678.1L460.3,678.1z"/>
		<path class="st2" d="M470,398.3c0-2.3-1.3-4.3-3.2-5.3c0.2-0.6,0.4-1.3,0.4-2.1c0-3.2-2.5-5.9-5.6-5.9c-0.7,0-1.4,0.1-2,0.4
			c-0.9-2-2.8-3.3-5.1-3.3s-4.1,1.3-5.1,3.3c-0.6-0.2-1.3-0.4-2-0.4c-3.1,0-5.6,2.6-5.6,5.9c0,0.7,0.1,1.4,0.3,2.1
			c-1.9,1-3.2,3-3.2,5.3c0,2.2,1.1,4.1,2.9,5.1c0,0.2,0,0.5,0,0.8c0,3.2,2.5,5.9,5.6,5.9c0.7,0,1.4-0.1,2-0.4c0.9,2,2.8,3.3,5.1,3.3
			c2.2,0,4.1-1.3,5.1-3.3c0.6,0.2,1.3,0.4,2,0.4c3.1,0,5.6-2.6,5.6-5.9c0-0.3,0-0.5,0-0.8C468.9,402.5,470,400.5,470,398.3
			L470,398.3z M460.3,393.4l-6.4,9.6c-0.2,0.3-0.6,0.5-0.9,0.5c-0.2,0-0.4-0.1-0.6-0.2l-0.2-0.1l-3.6-3.5c-0.4-0.4-0.4-1.1,0-1.6
			c0.4-0.4,1.1-0.4,1.6,0l2.6,2.6l5.6-8.4c0.3-0.5,1-0.6,1.5-0.3C460.5,392.2,460.6,392.9,460.3,393.4L460.3,393.4z"/>
		<path class="st3" d="M470,569.2c0-2.3-1.3-4.3-3.2-5.3c0.2-0.6,0.4-1.3,0.4-2.1c0-3.2-2.5-5.9-5.6-5.9c-0.7,0-1.4,0.1-2,0.4
			c-0.9-2-2.8-3.3-5.1-3.3s-4.1,1.3-5.1,3.3c-0.6-0.2-1.3-0.4-2-0.4c-3.1,0-5.6,2.6-5.6,5.9c0,0.7,0.1,1.4,0.3,2.1
			c-1.9,1-3.2,3-3.2,5.3c0,2.2,1.1,4.1,2.9,5.1c0,0.2,0,0.5,0,0.8c0,3.2,2.5,5.9,5.6,5.9c0.7,0,1.4-0.1,2-0.4c0.9,2,2.8,3.3,5.1,3.3
			c2.2,0,4.1-1.3,5.1-3.3c0.6,0.2,1.3,0.4,2,0.4c3.1,0,5.6-2.6,5.6-5.9c0-0.3,0-0.5,0-0.8C468.9,573.3,470,571.4,470,569.2
			L470,569.2z M460.3,564.3l-6.4,9.5c-0.2,0.3-0.6,0.5-0.9,0.5c-0.2,0-0.4-0.1-0.6-0.2l-0.2-0.1l-3.6-3.5c-0.4-0.4-0.4-1.1,0-1.6
			c0.4-0.4,1.1-0.4,1.6,0l2.6,2.6l5.6-8.4c0.3-0.5,1-0.6,1.5-0.3C460.5,563.1,460.6,563.8,460.3,564.3L460.3,564.3z"/>
		<path class="st2" d="M470,739.9c0-2.3-1.3-4.3-3.2-5.3c0.2-0.6,0.4-1.3,0.4-2.1c0-3.2-2.5-5.9-5.6-5.9c-0.7,0-1.4,0.1-2,0.4
			c-0.9-2-2.8-3.3-5.1-3.3s-4.1,1.3-5.1,3.3c-0.6-0.2-1.3-0.4-2-0.4c-3.1,0-5.6,2.6-5.6,5.9c0,0.7,0.1,1.4,0.3,2.1
			c-1.9,1-3.2,3-3.2,5.3c0,2.2,1.1,4.1,2.9,5.1c0,0.2,0,0.5,0,0.8c0,3.2,2.5,5.9,5.6,5.9c0.7,0,1.4-0.1,2-0.4c0.9,2,2.8,3.3,5.1,3.3
			c2.2,0,4.1-1.3,5.1-3.3c0.6,0.2,1.3,0.4,2,0.4c3.1,0,5.6-2.6,5.6-5.9c0-0.3,0-0.5,0-0.8C468.9,744,470,742.1,470,739.9z
			 M460.3,735l-6.4,9.6c-0.2,0.3-0.6,0.5-0.9,0.5c-0.2,0-0.4-0.1-0.6-0.2l-0.2-0.1l-3.6-3.6c-0.4-0.4-0.4-1.1,0-1.6
			c0.4-0.4,1.1-0.4,1.6,0l2.6,2.6l5.6-8.4c0.3-0.5,1-0.6,1.5-0.3C460.5,733.8,460.6,734.5,460.3,735z"/>
		<path class="st2" d="M470,796.9c0-2.3-1.3-4.3-3.2-5.3c0.2-0.6,0.4-1.3,0.4-2.1c0-3.2-2.5-5.9-5.6-5.9c-0.7,0-1.4,0.1-2,0.4
			c-0.9-2-2.8-3.3-5.1-3.3s-4.1,1.3-5.1,3.3c-0.6-0.2-1.3-0.4-2-0.4c-3.1,0-5.6,2.6-5.6,5.9c0,0.7,0.1,1.4,0.3,2.1
			c-1.9,1-3.2,3-3.2,5.3c0,2.2,1.1,4.1,2.9,5.1c0,0.2,0,0.5,0,0.8c0,3.2,2.5,5.9,5.6,5.9c0.7,0,1.4-0.1,2-0.4c0.9,2,2.8,3.3,5.1,3.3
			c2.2,0,4.1-1.3,5.1-3.3c0.6,0.2,1.3,0.4,2,0.4c3.1,0,5.6-2.6,5.6-5.9c0-0.3,0-0.5,0-0.8C468.9,801,470,799.1,470,796.9z
			 M460.3,792l-6.4,9.5c-0.2,0.3-0.6,0.5-0.9,0.5c-0.2,0-0.4-0.1-0.6-0.2l-0.2-0.1l-3.6-3.6c-0.4-0.4-0.4-1.1,0-1.6
			c0.4-0.4,1.1-0.4,1.6,0l2.6,2.6l5.6-8.4c0.3-0.5,1-0.6,1.5-0.3C460.5,790.8,460.6,791.5,460.3,792z"/>
		<path class="st2" d="M584.1,284.4c0-2.3-1.3-4.3-3.2-5.3c0.2-0.6,0.4-1.3,0.4-2.1c0-3.2-2.5-5.9-5.6-5.9c-0.7,0-1.4,0.1-2,0.4
			c-0.9-2-2.8-3.3-5-3.3c-2.2,0-4.1,1.3-5.1,3.3c-0.6-0.2-1.3-0.4-2-0.4c-3.1,0-5.6,2.6-5.6,5.9c0,0.7,0.1,1.4,0.4,2.1
			c-1.9,1-3.2,3-3.2,5.3c0,2.2,1.1,4.1,2.9,5.1c0,0.2,0,0.5,0,0.8c0,3.2,2.5,5.9,5.6,5.9c0.7,0,1.4-0.1,2-0.4c0.9,2,2.8,3.3,5.1,3.3
			c2.2,0,4.1-1.3,5-3.3c0.6,0.2,1.3,0.4,2,0.4c3.1,0,5.6-2.6,5.6-5.9c0-0.3,0-0.5,0-0.8C582.9,288.5,584.1,286.6,584.1,284.4
			L584.1,284.4z M574.3,279.5l-6.4,9.6c-0.2,0.3-0.6,0.5-0.9,0.5c-0.2,0-0.4-0.1-0.6-0.2l-0.2-0.1l-3.6-3.5c-0.4-0.4-0.4-1.1,0-1.6
			c0.4-0.4,1.1-0.4,1.6,0l2.6,2.6l5.6-8.4c0.3-0.5,1-0.6,1.5-0.3C574.5,278.3,574.7,279,574.3,279.5L574.3,279.5z"/>
		<path class="st3" d="M584.1,455.3c0-2.3-1.3-4.3-3.2-5.3c0.2-0.6,0.4-1.3,0.4-2.1c0-3.2-2.5-5.9-5.6-5.9c-0.7,0-1.4,0.1-2,0.4
			c-0.9-2-2.8-3.3-5-3.3c-2.2,0-4.1,1.3-5.1,3.3c-0.6-0.2-1.3-0.4-2-0.4c-3.1,0-5.6,2.6-5.6,5.9c0,0.7,0.1,1.4,0.4,2.1
			c-1.9,1-3.2,3-3.2,5.3c0,2.2,1.1,4.1,2.9,5.1c0,0.2,0,0.5,0,0.8c0,3.2,2.5,5.9,5.6,5.9c0.7,0,1.4-0.1,2-0.4c0.9,2,2.8,3.3,5.1,3.3
			c2.2,0,4.1-1.3,5-3.3c0.6,0.2,1.3,0.4,2,0.4c3.1,0,5.6-2.6,5.6-5.9c0-0.3,0-0.5,0-0.8C582.9,459.4,584.1,457.5,584.1,455.3
			L584.1,455.3z M574.3,450.4l-6.4,9.6c-0.2,0.3-0.6,0.5-0.9,0.5c-0.2,0-0.4-0.1-0.6-0.2l-0.2-0.1l-3.6-3.5c-0.4-0.4-0.4-1.1,0-1.6
			c0.4-0.4,1.1-0.4,1.6,0l2.6,2.6l5.6-8.4c0.3-0.5,1-0.6,1.5-0.3C574.5,449.2,574.7,449.9,574.3,450.4L574.3,450.4z"/>
		<path class="st3" d="M584.1,626.1c0-2.3-1.3-4.3-3.2-5.3c0.2-0.6,0.4-1.3,0.4-2.1c0-3.2-2.5-5.9-5.6-5.9c-0.7,0-1.4,0.1-2,0.4
			c-0.9-2-2.8-3.3-5-3.3c-2.2,0-4.1,1.3-5.1,3.3c-0.6-0.2-1.3-0.4-2-0.4c-3.1,0-5.6,2.6-5.6,5.9c0,0.7,0.1,1.4,0.4,2.1
			c-1.9,1-3.2,3-3.2,5.3c0,2.2,1.1,4.1,2.9,5.1c0,0.2,0,0.5,0,0.8c0,3.2,2.5,5.9,5.6,5.9c0.7,0,1.4-0.1,2-0.4c0.9,2,2.8,3.3,5.1,3.3
			c2.2,0,4.1-1.3,5-3.3c0.6,0.2,1.3,0.4,2,0.4c3.1,0,5.6-2.6,5.6-5.9c0-0.3,0-0.5,0-0.8C582.9,630.2,584.1,628.3,584.1,626.1z
			 M574.3,621.2l-6.4,9.6c-0.2,0.3-0.6,0.5-0.9,0.5c-0.2,0-0.4-0.1-0.6-0.2l-0.2-0.1l-3.6-3.6c-0.4-0.4-0.4-1.1,0-1.6
			c0.4-0.4,1.1-0.4,1.6,0l2.6,2.6l5.6-8.4c0.3-0.5,1-0.6,1.5-0.3C574.5,620,574.7,620.7,574.3,621.2z"/>
		<path class="st2" d="M584.1,341.4c0-2.3-1.3-4.3-3.2-5.3c0.2-0.6,0.4-1.3,0.4-2.1c0-3.2-2.5-5.9-5.6-5.9c-0.7,0-1.4,0.1-2,0.4
			c-0.9-2-2.8-3.3-5-3.3c-2.2,0-4.1,1.3-5.1,3.3c-0.6-0.2-1.3-0.4-2-0.4c-3.1,0-5.6,2.6-5.6,5.9c0,0.7,0.1,1.4,0.4,2.1
			c-1.9,1-3.2,3-3.2,5.3c0,2.2,1.1,4.1,2.9,5.1c0,0.2,0,0.5,0,0.8c0,3.2,2.5,5.9,5.6,5.9c0.7,0,1.4-0.1,2-0.4c0.9,2,2.8,3.3,5.1,3.3
			c2.2,0,4.1-1.3,5-3.3c0.6,0.2,1.3,0.4,2,0.4c3.1,0,5.6-2.6,5.6-5.9c0-0.3,0-0.5,0-0.8C582.9,345.5,584.1,343.6,584.1,341.4
			L584.1,341.4z M574.3,336.5l-6.4,9.6c-0.2,0.3-0.6,0.5-0.9,0.5c-0.2,0-0.4-0.1-0.6-0.2l-0.2-0.1l-3.6-3.5c-0.4-0.4-0.4-1.1,0-1.6
			c0.4-0.4,1.1-0.4,1.6,0l2.6,2.6l5.6-8.4c0.3-0.5,1-0.6,1.5-0.3C574.5,335.3,574.7,336,574.3,336.5L574.3,336.5z"/>
		<path class="st3" d="M584.1,512.2c0-2.3-1.3-4.3-3.2-5.3c0.2-0.6,0.4-1.3,0.4-2.1c0-3.2-2.5-5.9-5.6-5.9c-0.7,0-1.4,0.1-2,0.4
			c-0.9-2-2.8-3.3-5-3.3c-2.2,0-4.1,1.3-5.1,3.3c-0.6-0.2-1.3-0.4-2-0.4c-3.1,0-5.6,2.6-5.6,5.9c0,0.7,0.1,1.4,0.4,2.1
			c-1.9,1-3.2,3-3.2,5.3c0,2.2,1.1,4.1,2.9,5.1c0,0.2,0,0.5,0,0.8c0,3.2,2.5,5.9,5.6,5.9c0.7,0,1.4-0.1,2-0.4c0.9,2,2.8,3.3,5.1,3.3
			c2.2,0,4.1-1.3,5-3.3c0.6,0.2,1.3,0.4,2,0.4c3.1,0,5.6-2.6,5.6-5.9c0-0.3,0-0.5,0-0.8C582.9,516.3,584.1,514.4,584.1,512.2
			L584.1,512.2z M574.3,507.3l-6.4,9.6c-0.2,0.3-0.6,0.5-0.9,0.5c-0.2,0-0.4-0.1-0.6-0.2l-0.2-0.1l-3.6-3.5c-0.4-0.4-0.4-1.1,0-1.6
			c0.4-0.4,1.1-0.4,1.6,0l2.6,2.6l5.6-8.4c0.3-0.5,1-0.6,1.5-0.3C574.5,506.1,574.7,506.8,574.3,507.3L574.3,507.3z"/>
		<path class="st3" d="M584.1,683c0-2.3-1.3-4.3-3.2-5.3c0.2-0.6,0.4-1.3,0.4-2.1c0-3.2-2.5-5.9-5.6-5.9c-0.7,0-1.4,0.1-2,0.4
			c-0.9-2-2.8-3.3-5-3.3c-2.2,0-4.1,1.3-5.1,3.3c-0.6-0.2-1.3-0.4-2-0.4c-3.1,0-5.6,2.6-5.6,5.9c0,0.7,0.1,1.4,0.4,2.1
			c-1.9,1-3.2,3-3.2,5.3c0,2.2,1.1,4.1,2.9,5.1c0,0.2,0,0.5,0,0.8c0,3.2,2.5,5.9,5.6,5.9c0.7,0,1.4-0.1,2-0.4c0.9,2,2.8,3.3,5.1,3.3
			c2.2,0,4.1-1.3,5-3.3c0.6,0.2,1.3,0.4,2,0.4c3.1,0,5.6-2.6,5.6-5.9c0-0.3,0-0.5,0-0.8C582.9,687.1,584.1,685.2,584.1,683
			L584.1,683z M574.3,678.1l-6.4,9.5c-0.2,0.3-0.6,0.5-0.9,0.5c-0.2,0-0.4-0.1-0.6-0.2l-0.2-0.1l-3.6-3.5c-0.4-0.4-0.4-1.1,0-1.6
			c0.4-0.4,1.1-0.4,1.6,0l2.6,2.6l5.6-8.4c0.3-0.5,1-0.6,1.5-0.3C574.5,676.9,574.7,677.6,574.3,678.1L574.3,678.1z"/>
		<path class="st3" d="M584.1,398.3c0-2.3-1.3-4.3-3.2-5.3c0.2-0.6,0.4-1.3,0.4-2.1c0-3.2-2.5-5.9-5.6-5.9c-0.7,0-1.4,0.1-2,0.4
			c-0.9-2-2.8-3.3-5-3.3c-2.2,0-4.1,1.3-5.1,3.3c-0.6-0.2-1.3-0.4-2-0.4c-3.1,0-5.6,2.6-5.6,5.9c0,0.7,0.1,1.4,0.4,2.1
			c-1.9,1-3.2,3-3.2,5.3c0,2.2,1.1,4.1,2.9,5.1c0,0.2,0,0.5,0,0.8c0,3.2,2.5,5.9,5.6,5.9c0.7,0,1.4-0.1,2-0.4c0.9,2,2.8,3.3,5.1,3.3
			c2.2,0,4.1-1.3,5-3.3c0.6,0.2,1.3,0.4,2,0.4c3.1,0,5.6-2.6,5.6-5.9c0-0.3,0-0.5,0-0.8C582.9,402.5,584.1,400.5,584.1,398.3
			L584.1,398.3z M574.3,393.4L568,403c-0.2,0.3-0.6,0.5-0.9,0.5c-0.2,0-0.4-0.1-0.6-0.2l-0.2-0.1l-3.6-3.5c-0.4-0.4-0.4-1.1,0-1.6
			c0.4-0.4,1.1-0.4,1.6,0l2.6,2.6l5.6-8.4c0.3-0.5,1-0.6,1.5-0.3C574.5,392.2,574.7,392.9,574.3,393.4L574.3,393.4z"/>
		<path class="st3" d="M584.1,569.2c0-2.3-1.3-4.3-3.2-5.3c0.2-0.6,0.4-1.3,0.4-2.1c0-3.2-2.5-5.9-5.6-5.9c-0.7,0-1.4,0.1-2,0.4
			c-0.9-2-2.8-3.3-5-3.3c-2.2,0-4.1,1.3-5.1,3.3c-0.6-0.2-1.3-0.4-2-0.4c-3.1,0-5.6,2.6-5.6,5.9c0,0.7,0.1,1.4,0.4,2.1
			c-1.9,1-3.2,3-3.2,5.3c0,2.2,1.1,4.1,2.9,5.1c0,0.2,0,0.5,0,0.8c0,3.2,2.5,5.9,5.6,5.9c0.7,0,1.4-0.1,2-0.4c0.9,2,2.8,3.3,5.1,3.3
			c2.2,0,4.1-1.3,5-3.3c0.6,0.2,1.3,0.4,2,0.4c3.1,0,5.6-2.6,5.6-5.9c0-0.3,0-0.5,0-0.8C582.9,573.3,584.1,571.4,584.1,569.2
			L584.1,569.2z M574.3,564.3l-6.4,9.5c-0.2,0.3-0.6,0.5-0.9,0.5c-0.2,0-0.4-0.1-0.6-0.2l-0.2-0.1l-3.6-3.5c-0.4-0.4-0.4-1.1,0-1.6
			c0.4-0.4,1.1-0.4,1.6,0l2.6,2.6l5.6-8.4c0.3-0.5,1-0.6,1.5-0.3C574.5,563.1,574.7,563.8,574.3,564.3L574.3,564.3z"/>
		<path class="st2" d="M584.1,739.9c0-2.3-1.3-4.3-3.2-5.3c0.2-0.6,0.4-1.3,0.4-2.1c0-3.2-2.5-5.9-5.6-5.9c-0.7,0-1.4,0.1-2,0.4
			c-0.9-2-2.8-3.3-5-3.3c-2.2,0-4.1,1.3-5.1,3.3c-0.6-0.2-1.3-0.4-2-0.4c-3.1,0-5.6,2.6-5.6,5.9c0,0.7,0.1,1.4,0.4,2.1
			c-1.9,1-3.2,3-3.2,5.3c0,2.2,1.1,4.1,2.9,5.1c0,0.2,0,0.5,0,0.8c0,3.2,2.5,5.9,5.6,5.9c0.7,0,1.4-0.1,2-0.4c0.9,2,2.8,3.3,5.1,3.3
			c2.2,0,4.1-1.3,5-3.3c0.6,0.2,1.3,0.4,2,0.4c3.1,0,5.6-2.6,5.6-5.9c0-0.3,0-0.5,0-0.8C582.9,744,584.1,742.1,584.1,739.9z
			 M574.3,735l-6.4,9.6c-0.2,0.3-0.6,0.5-0.9,0.5c-0.2,0-0.4-0.1-0.6-0.2l-0.2-0.1l-3.6-3.6c-0.4-0.4-0.4-1.1,0-1.6
			c0.4-0.4,1.1-0.4,1.6,0l2.6,2.6l5.6-8.4c0.3-0.5,1-0.6,1.5-0.3C574.5,733.8,574.7,734.5,574.3,735z"/>
		<path class="st2" d="M584.1,796.9c0-2.3-1.3-4.3-3.2-5.3c0.2-0.6,0.4-1.3,0.4-2.1c0-3.2-2.5-5.9-5.6-5.9c-0.7,0-1.4,0.1-2,0.4
			c-0.9-2-2.8-3.3-5-3.3c-2.2,0-4.1,1.3-5.1,3.3c-0.6-0.2-1.3-0.4-2-0.4c-3.1,0-5.6,2.6-5.6,5.9c0,0.7,0.1,1.4,0.4,2.1
			c-1.9,1-3.2,3-3.2,5.3c0,2.2,1.1,4.1,2.9,5.1c0,0.2,0,0.5,0,0.8c0,3.2,2.5,5.9,5.6,5.9c0.7,0,1.4-0.1,2-0.4c0.9,2,2.8,3.3,5.1,3.3
			c2.2,0,4.1-1.3,5-3.3c0.6,0.2,1.3,0.4,2,0.4c3.1,0,5.6-2.6,5.6-5.9c0-0.3,0-0.5,0-0.8C582.9,801,584.1,799.1,584.1,796.9z
			 M574.3,792l-6.4,9.5c-0.2,0.3-0.6,0.5-0.9,0.5c-0.2,0-0.4-0.1-0.6-0.2l-0.2-0.1l-3.6-3.6c-0.4-0.4-0.4-1.1,0-1.6
			c0.4-0.4,1.1-0.4,1.6,0l2.6,2.6l5.6-8.4c0.3-0.5,1-0.6,1.5-0.3C574.5,790.8,574.7,791.5,574.3,792z"/>
		<path class="st2" d="M698.1,284.4c0-2.3-1.3-4.3-3.2-5.3c0.2-0.6,0.4-1.3,0.4-2.1c0-3.2-2.5-5.9-5.6-5.9c-0.7,0-1.4,0.1-2,0.4
			c-0.9-2-2.8-3.3-5-3.3c-2.2,0-4.1,1.3-5.1,3.3c-0.6-0.2-1.3-0.4-2-0.4c-3.1,0-5.6,2.6-5.6,5.9c0,0.7,0.1,1.4,0.3,2.1
			c-1.9,1-3.2,3-3.2,5.3c0,2.2,1.1,4.1,2.9,5.1c0,0.2,0,0.5,0,0.8c0,3.2,2.5,5.9,5.6,5.9c0.7,0,1.4-0.1,2-0.4c0.9,2,2.8,3.3,5,3.3
			c2.2,0,4.1-1.3,5.1-3.3c0.6,0.2,1.3,0.4,2,0.4c3.1,0,5.6-2.6,5.6-5.9c0-0.3,0-0.5,0-0.8C696.9,288.5,698.1,286.6,698.1,284.4
			L698.1,284.4z M688.4,279.5l-6.4,9.6c-0.2,0.3-0.6,0.5-0.9,0.5c-0.2,0-0.4-0.1-0.6-0.2l-0.2-0.1l-3.5-3.5c-0.4-0.4-0.4-1.1,0-1.6
			c0.4-0.4,1.1-0.4,1.6,0l2.6,2.6l5.6-8.4c0.3-0.5,1-0.6,1.5-0.3C688.6,278.3,688.7,279,688.4,279.5L688.4,279.5z"/>
		<path class="st2" d="M698.1,455.3c0-2.3-1.3-4.3-3.2-5.3c0.2-0.6,0.4-1.3,0.4-2.1c0-3.2-2.5-5.9-5.6-5.9c-0.7,0-1.4,0.1-2,0.4
			c-0.9-2-2.8-3.3-5-3.3c-2.2,0-4.1,1.3-5.1,3.3c-0.6-0.2-1.3-0.4-2-0.4c-3.1,0-5.6,2.6-5.6,5.9c0,0.7,0.1,1.4,0.3,2.1
			c-1.9,1-3.2,3-3.2,5.3c0,2.2,1.1,4.1,2.9,5.1c0,0.2,0,0.5,0,0.8c0,3.2,2.5,5.9,5.6,5.9c0.7,0,1.4-0.1,2-0.4c0.9,2,2.8,3.3,5,3.3
			c2.2,0,4.1-1.3,5.1-3.3c0.6,0.2,1.3,0.4,2,0.4c3.1,0,5.6-2.6,5.6-5.9c0-0.3,0-0.5,0-0.8C696.9,459.4,698.1,457.5,698.1,455.3
			L698.1,455.3z M688.4,450.4l-6.4,9.6c-0.2,0.3-0.6,0.5-0.9,0.5c-0.2,0-0.4-0.1-0.6-0.2l-0.2-0.1l-3.5-3.5c-0.4-0.4-0.4-1.1,0-1.6
			c0.4-0.4,1.1-0.4,1.6,0l2.6,2.6l5.6-8.4c0.3-0.5,1-0.6,1.5-0.3C688.6,449.2,688.7,449.9,688.4,450.4L688.4,450.4z"/>
		<path class="st2" d="M698.1,626.1c0-2.3-1.3-4.3-3.2-5.3c0.2-0.6,0.4-1.3,0.4-2.1c0-3.2-2.5-5.9-5.6-5.9c-0.7,0-1.4,0.1-2,0.4
			c-0.9-2-2.8-3.3-5-3.3c-2.2,0-4.1,1.3-5.1,3.3c-0.6-0.2-1.3-0.4-2-0.4c-3.1,0-5.6,2.6-5.6,5.9c0,0.7,0.1,1.4,0.3,2.1
			c-1.9,1-3.2,3-3.2,5.3c0,2.2,1.1,4.1,2.9,5.1c0,0.2,0,0.5,0,0.8c0,3.2,2.5,5.9,5.6,5.9c0.7,0,1.4-0.1,2-0.4c0.9,2,2.8,3.3,5,3.3
			c2.2,0,4.1-1.3,5.1-3.3c0.6,0.2,1.3,0.4,2,0.4c3.1,0,5.6-2.6,5.6-5.9c0-0.3,0-0.5,0-0.8C696.9,630.2,698.1,628.3,698.1,626.1z
			 M688.4,621.2l-6.4,9.6c-0.2,0.3-0.6,0.5-0.9,0.5c-0.2,0-0.4-0.1-0.6-0.2l-0.2-0.1l-3.5-3.6c-0.4-0.4-0.4-1.1,0-1.6
			c0.4-0.4,1.1-0.4,1.6,0l2.6,2.6l5.6-8.4c0.3-0.5,1-0.6,1.5-0.3C688.6,620,688.7,620.7,688.4,621.2z"/>
		<path class="st2" d="M698.1,341.4c0-2.3-1.3-4.3-3.2-5.3c0.2-0.6,0.4-1.3,0.4-2.1c0-3.2-2.5-5.9-5.6-5.9c-0.7,0-1.4,0.1-2,0.4
			c-0.9-2-2.8-3.3-5-3.3c-2.2,0-4.1,1.3-5.1,3.3c-0.6-0.2-1.3-0.4-2-0.4c-3.1,0-5.6,2.6-5.6,5.9c0,0.7,0.1,1.4,0.3,2.1
			c-1.9,1-3.2,3-3.2,5.3c0,2.2,1.1,4.1,2.9,5.1c0,0.2,0,0.5,0,0.8c0,3.2,2.5,5.9,5.6,5.9c0.7,0,1.4-0.1,2-0.4c0.9,2,2.8,3.3,5,3.3
			c2.2,0,4.1-1.3,5.1-3.3c0.6,0.2,1.3,0.4,2,0.4c3.1,0,5.6-2.6,5.6-5.9c0-0.3,0-0.5,0-0.8C696.9,345.5,698.1,343.6,698.1,341.4
			L698.1,341.4z M688.4,336.5l-6.4,9.6c-0.2,0.3-0.6,0.5-0.9,0.5c-0.2,0-0.4-0.1-0.6-0.2l-0.2-0.1l-3.5-3.5c-0.4-0.4-0.4-1.1,0-1.6
			c0.4-0.4,1.1-0.4,1.6,0l2.6,2.6l5.6-8.4c0.3-0.5,1-0.6,1.5-0.3C688.6,335.3,688.7,336,688.4,336.5L688.4,336.5z"/>
		<path class="st3" d="M698.1,512.2c0-2.3-1.3-4.3-3.2-5.3c0.2-0.6,0.4-1.3,0.4-2.1c0-3.2-2.5-5.9-5.6-5.9c-0.7,0-1.4,0.1-2,0.4
			c-0.9-2-2.8-3.3-5-3.3c-2.2,0-4.1,1.3-5.1,3.3c-0.6-0.2-1.3-0.4-2-0.4c-3.1,0-5.6,2.6-5.6,5.9c0,0.7,0.1,1.4,0.3,2.1
			c-1.9,1-3.2,3-3.2,5.3c0,2.2,1.1,4.1,2.9,5.1c0,0.2,0,0.5,0,0.8c0,3.2,2.5,5.9,5.6,5.9c0.7,0,1.4-0.1,2-0.4c0.9,2,2.8,3.3,5,3.3
			c2.2,0,4.1-1.3,5.1-3.3c0.6,0.2,1.3,0.4,2,0.4c3.1,0,5.6-2.6,5.6-5.9c0-0.3,0-0.5,0-0.8C696.9,516.3,698.1,514.4,698.1,512.2
			L698.1,512.2z M688.4,507.3l-6.4,9.6c-0.2,0.3-0.6,0.5-0.9,0.5c-0.2,0-0.4-0.1-0.6-0.2l-0.2-0.1l-3.5-3.5c-0.4-0.4-0.4-1.1,0-1.6
			c0.4-0.4,1.1-0.4,1.6,0l2.6,2.6l5.6-8.4c0.3-0.5,1-0.6,1.5-0.3C688.6,506.1,688.7,506.8,688.4,507.3L688.4,507.3z"/>
		<path class="st2" d="M698.1,683c0-2.3-1.3-4.3-3.2-5.3c0.2-0.6,0.4-1.3,0.4-2.1c0-3.2-2.5-5.9-5.6-5.9c-0.7,0-1.4,0.1-2,0.4
			c-0.9-2-2.8-3.3-5-3.3c-2.2,0-4.1,1.3-5.1,3.3c-0.6-0.2-1.3-0.4-2-0.4c-3.1,0-5.6,2.6-5.6,5.9c0,0.7,0.1,1.4,0.3,2.1
			c-1.9,1-3.2,3-3.2,5.3c0,2.2,1.1,4.1,2.9,5.1c0,0.2,0,0.5,0,0.8c0,3.2,2.5,5.9,5.6,5.9c0.7,0,1.4-0.1,2-0.4c0.9,2,2.8,3.3,5,3.3
			c2.2,0,4.1-1.3,5.1-3.3c0.6,0.2,1.3,0.4,2,0.4c3.1,0,5.6-2.6,5.6-5.9c0-0.3,0-0.5,0-0.8C696.9,687.1,698.1,685.2,698.1,683
			L698.1,683z M688.4,678.1l-6.4,9.5c-0.2,0.3-0.6,0.5-0.9,0.5c-0.2,0-0.4-0.1-0.6-0.2l-0.2-0.1l-3.5-3.5c-0.4-0.4-0.4-1.1,0-1.6
			c0.4-0.4,1.1-0.4,1.6,0l2.6,2.6l5.6-8.4c0.3-0.5,1-0.6,1.5-0.3C688.6,676.9,688.7,677.6,688.4,678.1L688.4,678.1z"/>
		<path class="st2" d="M698.1,398.3c0-2.3-1.3-4.3-3.2-5.3c0.2-0.6,0.4-1.3,0.4-2.1c0-3.2-2.5-5.9-5.6-5.9c-0.7,0-1.4,0.1-2,0.4
			c-0.9-2-2.8-3.3-5-3.3c-2.2,0-4.1,1.3-5.1,3.3c-0.6-0.2-1.3-0.4-2-0.4c-3.1,0-5.6,2.6-5.6,5.9c0,0.7,0.1,1.4,0.3,2.1
			c-1.9,1-3.2,3-3.2,5.3c0,2.2,1.1,4.1,2.9,5.1c0,0.2,0,0.5,0,0.8c0,3.2,2.5,5.9,5.6,5.9c0.7,0,1.4-0.1,2-0.4c0.9,2,2.8,3.3,5,3.3
			c2.2,0,4.1-1.3,5.1-3.3c0.6,0.2,1.3,0.4,2,0.4c3.1,0,5.6-2.6,5.6-5.9c0-0.3,0-0.5,0-0.8C696.9,402.5,698.1,400.5,698.1,398.3
			L698.1,398.3z M688.4,393.4L682,403c-0.2,0.3-0.6,0.5-0.9,0.5c-0.2,0-0.4-0.1-0.6-0.2l-0.2-0.1l-3.5-3.5c-0.4-0.4-0.4-1.1,0-1.6
			c0.4-0.4,1.1-0.4,1.6,0l2.6,2.6l5.6-8.4c0.3-0.5,1-0.6,1.5-0.3C688.6,392.2,688.7,392.9,688.4,393.4L688.4,393.4z"/>
		<path class="st3" d="M698.1,569.2c0-2.3-1.3-4.3-3.2-5.3c0.2-0.6,0.4-1.3,0.4-2.1c0-3.2-2.5-5.9-5.6-5.9c-0.7,0-1.4,0.1-2,0.4
			c-0.9-2-2.8-3.3-5-3.3c-2.2,0-4.1,1.3-5.1,3.3c-0.6-0.2-1.3-0.4-2-0.4c-3.1,0-5.6,2.6-5.6,5.9c0,0.7,0.1,1.4,0.3,2.1
			c-1.9,1-3.2,3-3.2,5.3c0,2.2,1.1,4.1,2.9,5.1c0,0.2,0,0.5,0,0.8c0,3.2,2.5,5.9,5.6,5.9c0.7,0,1.4-0.1,2-0.4c0.9,2,2.8,3.3,5,3.3
			c2.2,0,4.1-1.3,5.1-3.3c0.6,0.2,1.3,0.4,2,0.4c3.1,0,5.6-2.6,5.6-5.9c0-0.3,0-0.5,0-0.8C696.9,573.3,698.1,571.4,698.1,569.2
			L698.1,569.2z M688.4,564.3l-6.4,9.5c-0.2,0.3-0.6,0.5-0.9,0.5c-0.2,0-0.4-0.1-0.6-0.2l-0.2-0.1l-3.5-3.5c-0.4-0.4-0.4-1.1,0-1.6
			c0.4-0.4,1.1-0.4,1.6,0l2.6,2.6l5.6-8.4c0.3-0.5,1-0.6,1.5-0.3C688.6,563.1,688.7,563.8,688.4,564.3L688.4,564.3z"/>
		<path class="st2" d="M698.1,739.9c0-2.3-1.3-4.3-3.2-5.3c0.2-0.6,0.4-1.3,0.4-2.1c0-3.2-2.5-5.9-5.6-5.9c-0.7,0-1.4,0.1-2,0.4
			c-0.9-2-2.8-3.3-5-3.3c-2.2,0-4.1,1.3-5.1,3.3c-0.6-0.2-1.3-0.4-2-0.4c-3.1,0-5.6,2.6-5.6,5.9c0,0.7,0.1,1.4,0.3,2.1
			c-1.9,1-3.2,3-3.2,5.3c0,2.2,1.1,4.1,2.9,5.1c0,0.2,0,0.5,0,0.8c0,3.2,2.5,5.9,5.6,5.9c0.7,0,1.4-0.1,2-0.4c0.9,2,2.8,3.3,5,3.3
			c2.2,0,4.1-1.3,5.1-3.3c0.6,0.2,1.3,0.4,2,0.4c3.1,0,5.6-2.6,5.6-5.9c0-0.3,0-0.5,0-0.8C696.9,744,698.1,742.1,698.1,739.9z
			 M688.4,735l-6.4,9.6c-0.2,0.3-0.6,0.5-0.9,0.5c-0.2,0-0.4-0.1-0.6-0.2l-0.2-0.1l-3.5-3.6c-0.4-0.4-0.4-1.1,0-1.6
			c0.4-0.4,1.1-0.4,1.6,0l2.6,2.6l5.6-8.4c0.3-0.5,1-0.6,1.5-0.3C688.6,733.8,688.7,734.5,688.4,735z"/>
		<path class="st2" d="M698.1,796.9c0-2.3-1.3-4.3-3.2-5.3c0.2-0.6,0.4-1.3,0.4-2.1c0-3.2-2.5-5.9-5.6-5.9c-0.7,0-1.4,0.1-2,0.4
			c-0.9-2-2.8-3.3-5-3.3c-2.2,0-4.1,1.3-5.1,3.3c-0.6-0.2-1.3-0.4-2-0.4c-3.1,0-5.6,2.6-5.6,5.9c0,0.7,0.1,1.4,0.3,2.1
			c-1.9,1-3.2,3-3.2,5.3c0,2.2,1.1,4.1,2.9,5.1c0,0.2,0,0.5,0,0.8c0,3.2,2.5,5.9,5.6,5.9c0.7,0,1.4-0.1,2-0.4c0.9,2,2.8,3.3,5,3.3
			c2.2,0,4.1-1.3,5.1-3.3c0.6,0.2,1.3,0.4,2,0.4c3.1,0,5.6-2.6,5.6-5.9c0-0.3,0-0.5,0-0.8C696.9,801,698.1,799.1,698.1,796.9z
			 M688.4,792l-6.4,9.5c-0.2,0.3-0.6,0.5-0.9,0.5c-0.2,0-0.4-0.1-0.6-0.2l-0.2-0.1l-3.5-3.6c-0.4-0.4-0.4-1.1,0-1.6
			c0.4-0.4,1.1-0.4,1.6,0l2.6,2.6l5.6-8.4c0.3-0.5,1-0.6,1.5-0.3C688.6,790.8,688.7,791.5,688.4,792z"/>
		<path class="st2" d="M413,284.4c0-2.3-1.3-4.3-3.2-5.3c0.2-0.6,0.4-1.3,0.4-2.1c0-3.2-2.5-5.9-5.6-5.9c-0.7,0-1.4,0.1-2,0.4
			c-0.9-2-2.8-3.3-5.1-3.3c-2.2,0-4.1,1.3-5.1,3.3c-0.6-0.2-1.3-0.4-2-0.4c-3.1,0-5.6,2.6-5.6,5.9c0,0.7,0.1,1.4,0.3,2.1
			c-1.9,1-3.2,3-3.2,5.3c0,2.2,1.2,4.1,2.9,5.1c0,0.2,0,0.5,0,0.8c0,3.2,2.5,5.9,5.6,5.9c0.7,0,1.4-0.1,2-0.4c0.9,2,2.8,3.3,5.1,3.3
			c2.2,0,4.1-1.3,5.1-3.3c0.6,0.2,1.3,0.4,2,0.4c3.1,0,5.6-2.6,5.6-5.9c0-0.3,0-0.5,0-0.8C411.8,288.5,413,286.6,413,284.4
			L413,284.4z M403.3,279.5l-6.4,9.6c-0.2,0.3-0.6,0.5-0.9,0.5c-0.2,0-0.4-0.1-0.6-0.2l-0.2-0.1l-3.5-3.5c-0.4-0.4-0.4-1.1,0-1.6
			c0.4-0.4,1.1-0.4,1.6,0l2.6,2.6l5.6-8.4c0.3-0.5,1-0.6,1.5-0.3C403.5,278.3,403.6,279,403.3,279.5L403.3,279.5z"/>
		<path class="st2" d="M413,455.3c0-2.3-1.3-4.3-3.2-5.3c0.2-0.6,0.4-1.3,0.4-2.1c0-3.2-2.5-5.9-5.6-5.9c-0.7,0-1.4,0.1-2,0.4
			c-0.9-2-2.8-3.3-5.1-3.3c-2.2,0-4.1,1.3-5.1,3.3c-0.6-0.2-1.3-0.4-2-0.4c-3.1,0-5.6,2.6-5.6,5.9c0,0.7,0.1,1.4,0.3,2.1
			c-1.9,1-3.2,3-3.2,5.3c0,2.2,1.2,4.1,2.9,5.1c0,0.2,0,0.5,0,0.8c0,3.2,2.5,5.9,5.6,5.9c0.7,0,1.4-0.1,2-0.4c0.9,2,2.8,3.3,5.1,3.3
			c2.2,0,4.1-1.3,5.1-3.3c0.6,0.2,1.3,0.4,2,0.4c3.1,0,5.6-2.6,5.6-5.9c0-0.3,0-0.5,0-0.8C411.8,459.4,413,457.5,413,455.3
			L413,455.3z M403.3,450.4l-6.4,9.6c-0.2,0.3-0.6,0.5-0.9,0.5c-0.2,0-0.4-0.1-0.6-0.2l-0.2-0.1l-3.5-3.5c-0.4-0.4-0.4-1.1,0-1.6
			c0.4-0.4,1.1-0.4,1.6,0l2.6,2.6l5.6-8.4c0.3-0.5,1-0.6,1.5-0.3C403.5,449.2,403.6,449.9,403.3,450.4L403.3,450.4z"/>
		<path class="st2" d="M413,626.1c0-2.3-1.3-4.3-3.2-5.3c0.2-0.6,0.4-1.3,0.4-2.1c0-3.2-2.5-5.9-5.6-5.9c-0.7,0-1.4,0.1-2,0.4
			c-0.9-2-2.8-3.3-5.1-3.3c-2.2,0-4.1,1.3-5.1,3.3c-0.6-0.2-1.3-0.4-2-0.4c-3.1,0-5.6,2.6-5.6,5.9c0,0.7,0.1,1.4,0.3,2.1
			c-1.9,1-3.2,3-3.2,5.3c0,2.2,1.2,4.1,2.9,5.1c0,0.2,0,0.5,0,0.8c0,3.2,2.5,5.9,5.6,5.9c0.7,0,1.4-0.1,2-0.4c0.9,2,2.8,3.3,5.1,3.3
			c2.2,0,4.1-1.3,5.1-3.3c0.6,0.2,1.3,0.4,2,0.4c3.1,0,5.6-2.6,5.6-5.9c0-0.3,0-0.5,0-0.8C411.8,630.2,413,628.3,413,626.1z
			 M403.3,621.2l-6.4,9.6c-0.2,0.3-0.6,0.5-0.9,0.5c-0.2,0-0.4-0.1-0.6-0.2l-0.2-0.1l-3.5-3.6c-0.4-0.4-0.4-1.1,0-1.6
			c0.4-0.4,1.1-0.4,1.6,0l2.6,2.6l5.6-8.4c0.3-0.5,1-0.6,1.5-0.3C403.5,620,403.6,620.7,403.3,621.2z"/>
		<path class="st2" d="M413,341.4c0-2.3-1.3-4.3-3.2-5.3c0.2-0.6,0.4-1.3,0.4-2.1c0-3.2-2.5-5.9-5.6-5.9c-0.7,0-1.4,0.1-2,0.4
			c-0.9-2-2.8-3.3-5.1-3.3c-2.2,0-4.1,1.3-5.1,3.3c-0.6-0.2-1.3-0.4-2-0.4c-3.1,0-5.6,2.6-5.6,5.9c0,0.7,0.1,1.4,0.3,2.1
			c-1.9,1-3.2,3-3.2,5.3c0,2.2,1.2,4.1,2.9,5.1c0,0.2,0,0.5,0,0.8c0,3.2,2.5,5.9,5.6,5.9c0.7,0,1.4-0.1,2-0.4c0.9,2,2.8,3.3,5.1,3.3
			c2.2,0,4.1-1.3,5.1-3.3c0.6,0.2,1.3,0.4,2,0.4c3.1,0,5.6-2.6,5.6-5.9c0-0.3,0-0.5,0-0.8C411.8,345.5,413,343.6,413,341.4
			L413,341.4z M403.3,336.5l-6.4,9.6c-0.2,0.3-0.6,0.5-0.9,0.5c-0.2,0-0.4-0.1-0.6-0.2l-0.2-0.1l-3.5-3.5c-0.4-0.4-0.4-1.1,0-1.6
			c0.4-0.4,1.1-0.4,1.6,0l2.6,2.6l5.6-8.4c0.3-0.5,1-0.6,1.5-0.3C403.5,335.3,403.6,336,403.3,336.5L403.3,336.5z"/>
		<path class="st3" d="M413,512.2c0-2.3-1.3-4.3-3.2-5.3c0.2-0.6,0.4-1.3,0.4-2.1c0-3.2-2.5-5.9-5.6-5.9c-0.7,0-1.4,0.1-2,0.4
			c-0.9-2-2.8-3.3-5.1-3.3c-2.2,0-4.1,1.3-5.1,3.3c-0.6-0.2-1.3-0.4-2-0.4c-3.1,0-5.6,2.6-5.6,5.9c0,0.7,0.1,1.4,0.3,2.1
			c-1.9,1-3.2,3-3.2,5.3c0,2.2,1.2,4.1,2.9,5.1c0,0.2,0,0.5,0,0.8c0,3.2,2.5,5.9,5.6,5.9c0.7,0,1.4-0.1,2-0.4c0.9,2,2.8,3.3,5.1,3.3
			c2.2,0,4.1-1.3,5.1-3.3c0.6,0.2,1.3,0.4,2,0.4c3.1,0,5.6-2.6,5.6-5.9c0-0.3,0-0.5,0-0.8C411.8,516.3,413,514.4,413,512.2
			L413,512.2z M403.3,507.3l-6.4,9.6c-0.2,0.3-0.6,0.5-0.9,0.5c-0.2,0-0.4-0.1-0.6-0.2l-0.2-0.1l-3.5-3.5c-0.4-0.4-0.4-1.1,0-1.6
			c0.4-0.4,1.1-0.4,1.6,0l2.6,2.6l5.6-8.4c0.3-0.5,1-0.6,1.5-0.3C403.5,506.1,403.6,506.8,403.3,507.3L403.3,507.3z"/>
		<path class="st2" d="M413,683c0-2.3-1.3-4.3-3.2-5.3c0.2-0.6,0.4-1.3,0.4-2.1c0-3.2-2.5-5.9-5.6-5.9c-0.7,0-1.4,0.1-2,0.4
			c-0.9-2-2.8-3.3-5.1-3.3c-2.2,0-4.1,1.3-5.1,3.3c-0.6-0.2-1.3-0.4-2-0.4c-3.1,0-5.6,2.6-5.6,5.9c0,0.7,0.1,1.4,0.3,2.1
			c-1.9,1-3.2,3-3.2,5.3c0,2.2,1.2,4.1,2.9,5.1c0,0.2,0,0.5,0,0.8c0,3.2,2.5,5.9,5.6,5.9c0.7,0,1.4-0.1,2-0.4c0.9,2,2.8,3.3,5.1,3.3
			c2.2,0,4.1-1.3,5.1-3.3c0.6,0.2,1.3,0.4,2,0.4c3.1,0,5.6-2.6,5.6-5.9c0-0.3,0-0.5,0-0.8C411.8,687.1,413,685.2,413,683L413,683z
			 M403.3,678.1l-6.4,9.5c-0.2,0.3-0.6,0.5-0.9,0.5c-0.2,0-0.4-0.1-0.6-0.2l-0.2-0.1l-3.5-3.5c-0.4-0.4-0.4-1.1,0-1.6
			c0.4-0.4,1.1-0.4,1.6,0l2.6,2.6l5.6-8.4c0.3-0.5,1-0.6,1.5-0.3C403.5,676.9,403.6,677.6,403.3,678.1L403.3,678.1z"/>
		<path class="st2" d="M413,398.3c0-2.3-1.3-4.3-3.2-5.3c0.2-0.6,0.4-1.3,0.4-2.1c0-3.2-2.5-5.9-5.6-5.9c-0.7,0-1.4,0.1-2,0.4
			c-0.9-2-2.8-3.3-5.1-3.3c-2.2,0-4.1,1.3-5.1,3.3c-0.6-0.2-1.3-0.4-2-0.4c-3.1,0-5.6,2.6-5.6,5.9c0,0.7,0.1,1.4,0.3,2.1
			c-1.9,1-3.2,3-3.2,5.3c0,2.2,1.2,4.1,2.9,5.1c0,0.2,0,0.5,0,0.8c0,3.2,2.5,5.9,5.6,5.9c0.7,0,1.4-0.1,2-0.4c0.9,2,2.8,3.3,5.1,3.3
			c2.2,0,4.1-1.3,5.1-3.3c0.6,0.2,1.3,0.4,2,0.4c3.1,0,5.6-2.6,5.6-5.9c0-0.3,0-0.5,0-0.8C411.8,402.5,413,400.5,413,398.3
			L413,398.3z M403.3,393.4l-6.4,9.6c-0.2,0.3-0.6,0.5-0.9,0.5c-0.2,0-0.4-0.1-0.6-0.2l-0.2-0.1l-3.5-3.5c-0.4-0.4-0.4-1.1,0-1.6
			c0.4-0.4,1.1-0.4,1.6,0l2.6,2.6l5.6-8.4c0.3-0.5,1-0.6,1.5-0.3C403.5,392.2,403.6,392.9,403.3,393.4L403.3,393.4z"/>
		<path class="st3" d="M413,569.2c0-2.3-1.3-4.3-3.2-5.3c0.2-0.6,0.4-1.3,0.4-2.1c0-3.2-2.5-5.9-5.6-5.9c-0.7,0-1.4,0.1-2,0.4
			c-0.9-2-2.8-3.3-5.1-3.3c-2.2,0-4.1,1.3-5.1,3.3c-0.6-0.2-1.3-0.4-2-0.4c-3.1,0-5.6,2.6-5.6,5.9c0,0.7,0.1,1.4,0.3,2.1
			c-1.9,1-3.2,3-3.2,5.3c0,2.2,1.2,4.1,2.9,5.1c0,0.2,0,0.5,0,0.8c0,3.2,2.5,5.9,5.6,5.9c0.7,0,1.4-0.1,2-0.4c0.9,2,2.8,3.3,5.1,3.3
			c2.2,0,4.1-1.3,5.1-3.3c0.6,0.2,1.3,0.4,2,0.4c3.1,0,5.6-2.6,5.6-5.9c0-0.3,0-0.5,0-0.8C411.8,573.3,413,571.4,413,569.2
			L413,569.2z M403.3,564.3l-6.4,9.5c-0.2,0.3-0.6,0.5-0.9,0.5c-0.2,0-0.4-0.1-0.6-0.2l-0.2-0.1l-3.5-3.5c-0.4-0.4-0.4-1.1,0-1.6
			c0.4-0.4,1.1-0.4,1.6,0l2.6,2.6l5.6-8.4c0.3-0.5,1-0.6,1.5-0.3C403.5,563.1,403.6,563.8,403.3,564.3L403.3,564.3z"/>
		<path class="st2" d="M413,739.9c0-2.3-1.3-4.3-3.2-5.3c0.2-0.6,0.4-1.3,0.4-2.1c0-3.2-2.5-5.9-5.6-5.9c-0.7,0-1.4,0.1-2,0.4
			c-0.9-2-2.8-3.3-5.1-3.3c-2.2,0-4.1,1.3-5.1,3.3c-0.6-0.2-1.3-0.4-2-0.4c-3.1,0-5.6,2.6-5.6,5.9c0,0.7,0.1,1.4,0.3,2.1
			c-1.9,1-3.2,3-3.2,5.3c0,2.2,1.2,4.1,2.9,5.1c0,0.2,0,0.5,0,0.8c0,3.2,2.5,5.9,5.6,5.9c0.7,0,1.4-0.1,2-0.4c0.9,2,2.8,3.3,5.1,3.3
			c2.2,0,4.1-1.3,5.1-3.3c0.6,0.2,1.3,0.4,2,0.4c3.1,0,5.6-2.6,5.6-5.9c0-0.3,0-0.5,0-0.8C411.8,744,413,742.1,413,739.9z
			 M403.3,735l-6.4,9.6c-0.2,0.3-0.6,0.5-0.9,0.5c-0.2,0-0.4-0.1-0.6-0.2l-0.2-0.1l-3.5-3.6c-0.4-0.4-0.4-1.1,0-1.6
			c0.4-0.4,1.1-0.4,1.6,0l2.6,2.6l5.6-8.4c0.3-0.5,1-0.6,1.5-0.3C403.5,733.8,403.6,734.5,403.3,735z"/>
		<path class="st2" d="M413,796.9c0-2.3-1.3-4.3-3.2-5.3c0.2-0.6,0.4-1.3,0.4-2.1c0-3.2-2.5-5.9-5.6-5.9c-0.7,0-1.4,0.1-2,0.4
			c-0.9-2-2.8-3.3-5.1-3.3c-2.2,0-4.1,1.3-5.1,3.3c-0.6-0.2-1.3-0.4-2-0.4c-3.1,0-5.6,2.6-5.6,5.9c0,0.7,0.1,1.4,0.3,2.1
			c-1.9,1-3.2,3-3.2,5.3c0,2.2,1.2,4.1,2.9,5.1c0,0.2,0,0.5,0,0.8c0,3.2,2.5,5.9,5.6,5.9c0.7,0,1.4-0.1,2-0.4c0.9,2,2.8,3.3,5.1,3.3
			c2.2,0,4.1-1.3,5.1-3.3c0.6,0.2,1.3,0.4,2,0.4c3.1,0,5.6-2.6,5.6-5.9c0-0.3,0-0.5,0-0.8C411.8,801,413,799.1,413,796.9z
			 M403.3,792l-6.4,9.5c-0.2,0.3-0.6,0.5-0.9,0.5c-0.2,0-0.4-0.1-0.6-0.2l-0.2-0.1l-3.5-3.6c-0.4-0.4-0.4-1.1,0-1.6
			c0.4-0.4,1.1-0.4,1.6,0l2.6,2.6l5.6-8.4c0.3-0.5,1-0.6,1.5-0.3C403.5,790.8,403.6,791.5,403.3,792z"/>
		<path class="st2" d="M527,284.4c0-2.3-1.3-4.3-3.2-5.3c0.2-0.6,0.4-1.3,0.4-2.1c0-3.2-2.5-5.9-5.6-5.9c-0.7,0-1.4,0.1-2,0.4
			c-0.9-2-2.8-3.3-5.1-3.3c-2.2,0-4.1,1.3-5.1,3.3c-0.6-0.2-1.3-0.4-2-0.4c-3.1,0-5.6,2.6-5.6,5.9c0,0.7,0.1,1.4,0.3,2.1
			c-1.9,1-3.2,3-3.2,5.3c0,2.2,1.1,4.1,2.9,5.1c0,0.2,0,0.5,0,0.8c0,3.2,2.5,5.9,5.6,5.9c0.7,0,1.4-0.1,2-0.4c0.9,2,2.8,3.3,5.1,3.3
			c2.2,0,4.1-1.3,5.1-3.3c0.6,0.2,1.3,0.4,2,0.4c3.1,0,5.6-2.6,5.6-5.9c0-0.3,0-0.5,0-0.8C525.9,288.5,527,286.6,527,284.4
			L527,284.4z M517.3,279.5l-6.4,9.6c-0.2,0.3-0.6,0.5-0.9,0.5c-0.2,0-0.4-0.1-0.6-0.2l-0.2-0.1l-3.5-3.5c-0.4-0.4-0.4-1.1,0-1.6
			c0.4-0.4,1.1-0.4,1.6,0l2.6,2.6l5.6-8.4c0.3-0.5,1-0.6,1.5-0.3C517.5,278.3,517.6,279,517.3,279.5L517.3,279.5z"/>
		<path class="st3" d="M527,455.3c0-2.3-1.3-4.3-3.2-5.3c0.2-0.6,0.4-1.3,0.4-2.1c0-3.2-2.5-5.9-5.6-5.9c-0.7,0-1.4,0.1-2,0.4
			c-0.9-2-2.8-3.3-5.1-3.3c-2.2,0-4.1,1.3-5.1,3.3c-0.6-0.2-1.3-0.4-2-0.4c-3.1,0-5.6,2.6-5.6,5.9c0,0.7,0.1,1.4,0.3,2.1
			c-1.9,1-3.2,3-3.2,5.3c0,2.2,1.1,4.1,2.9,5.1c0,0.2,0,0.5,0,0.8c0,3.2,2.5,5.9,5.6,5.9c0.7,0,1.4-0.1,2-0.4c0.9,2,2.8,3.3,5.1,3.3
			c2.2,0,4.1-1.3,5.1-3.3c0.6,0.2,1.3,0.4,2,0.4c3.1,0,5.6-2.6,5.6-5.9c0-0.3,0-0.5,0-0.8C525.9,459.4,527,457.5,527,455.3
			L527,455.3z M517.3,450.4l-6.4,9.6c-0.2,0.3-0.6,0.5-0.9,0.5c-0.2,0-0.4-0.1-0.6-0.2l-0.2-0.1l-3.5-3.5c-0.4-0.4-0.4-1.1,0-1.6
			c0.4-0.4,1.1-0.4,1.6,0l2.6,2.6l5.6-8.4c0.3-0.5,1-0.6,1.5-0.3C517.5,449.2,517.6,449.9,517.3,450.4L517.3,450.4z"/>
		<path class="st3" d="M527,626.1c0-2.3-1.3-4.3-3.2-5.3c0.2-0.6,0.4-1.3,0.4-2.1c0-3.2-2.5-5.9-5.6-5.9c-0.7,0-1.4,0.1-2,0.4
			c-0.9-2-2.8-3.3-5.1-3.3c-2.2,0-4.1,1.3-5.1,3.3c-0.6-0.2-1.3-0.4-2-0.4c-3.1,0-5.6,2.6-5.6,5.9c0,0.7,0.1,1.4,0.3,2.1
			c-1.9,1-3.2,3-3.2,5.3c0,2.2,1.1,4.1,2.9,5.1c0,0.2,0,0.5,0,0.8c0,3.2,2.5,5.9,5.6,5.9c0.7,0,1.4-0.1,2-0.4c0.9,2,2.8,3.3,5.1,3.3
			c2.2,0,4.1-1.3,5.1-3.3c0.6,0.2,1.3,0.4,2,0.4c3.1,0,5.6-2.6,5.6-5.9c0-0.3,0-0.5,0-0.8C525.9,630.2,527,628.3,527,626.1z
			 M517.3,621.2l-6.4,9.6c-0.2,0.3-0.6,0.5-0.9,0.5c-0.2,0-0.4-0.1-0.6-0.2l-0.2-0.1l-3.5-3.6c-0.4-0.4-0.4-1.1,0-1.6
			c0.4-0.4,1.1-0.4,1.6,0l2.6,2.6l5.6-8.4c0.3-0.5,1-0.6,1.5-0.3C517.5,620,517.6,620.7,517.3,621.2z"/>
		<path class="st2" d="M527,341.4c0-2.3-1.3-4.3-3.2-5.3c0.2-0.6,0.4-1.3,0.4-2.1c0-3.2-2.5-5.9-5.6-5.9c-0.7,0-1.4,0.1-2,0.4
			c-0.9-2-2.8-3.3-5.1-3.3c-2.2,0-4.1,1.3-5.1,3.3c-0.6-0.2-1.3-0.4-2-0.4c-3.1,0-5.6,2.6-5.6,5.9c0,0.7,0.1,1.4,0.3,2.1
			c-1.9,1-3.2,3-3.2,5.3c0,2.2,1.1,4.1,2.9,5.1c0,0.2,0,0.5,0,0.8c0,3.2,2.5,5.9,5.6,5.9c0.7,0,1.4-0.1,2-0.4c0.9,2,2.8,3.3,5.1,3.3
			c2.2,0,4.1-1.3,5.1-3.3c0.6,0.2,1.3,0.4,2,0.4c3.1,0,5.6-2.6,5.6-5.9c0-0.3,0-0.5,0-0.8C525.9,345.5,527,343.6,527,341.4
			L527,341.4z M517.3,336.5l-6.4,9.6c-0.2,0.3-0.6,0.5-0.9,0.5c-0.2,0-0.4-0.1-0.6-0.2l-0.2-0.1l-3.5-3.5c-0.4-0.4-0.4-1.1,0-1.6
			c0.4-0.4,1.1-0.4,1.6,0l2.6,2.6l5.6-8.4c0.3-0.5,1-0.6,1.5-0.3C517.5,335.3,517.6,336,517.3,336.5L517.3,336.5z"/>
		<path class="st3" d="M527,512.2c0-2.3-1.3-4.3-3.2-5.3c0.2-0.6,0.4-1.3,0.4-2.1c0-3.2-2.5-5.9-5.6-5.9c-0.7,0-1.4,0.1-2,0.4
			c-0.9-2-2.8-3.3-5.1-3.3c-2.2,0-4.1,1.3-5.1,3.3c-0.6-0.2-1.3-0.4-2-0.4c-3.1,0-5.6,2.6-5.6,5.9c0,0.7,0.1,1.4,0.3,2.1
			c-1.9,1-3.2,3-3.2,5.3c0,2.2,1.1,4.1,2.9,5.1c0,0.2,0,0.5,0,0.8c0,3.2,2.5,5.9,5.6,5.9c0.7,0,1.4-0.1,2-0.4c0.9,2,2.8,3.3,5.1,3.3
			c2.2,0,4.1-1.3,5.1-3.3c0.6,0.2,1.3,0.4,2,0.4c3.1,0,5.6-2.6,5.6-5.9c0-0.3,0-0.5,0-0.8C525.9,516.3,527,514.4,527,512.2
			L527,512.2z M517.3,507.3l-6.4,9.6c-0.2,0.3-0.6,0.5-0.9,0.5c-0.2,0-0.4-0.1-0.6-0.2l-0.2-0.1l-3.5-3.5c-0.4-0.4-0.4-1.1,0-1.6
			c0.4-0.4,1.1-0.4,1.6,0l2.6,2.6l5.6-8.4c0.3-0.5,1-0.6,1.5-0.3C517.5,506.1,517.6,506.8,517.3,507.3L517.3,507.3z"/>
		<path class="st3" d="M527,683c0-2.3-1.3-4.3-3.2-5.3c0.2-0.6,0.4-1.3,0.4-2.1c0-3.2-2.5-5.9-5.6-5.9c-0.7,0-1.4,0.1-2,0.4
			c-0.9-2-2.8-3.3-5.1-3.3c-2.2,0-4.1,1.3-5.1,3.3c-0.6-0.2-1.3-0.4-2-0.4c-3.1,0-5.6,2.6-5.6,5.9c0,0.7,0.1,1.4,0.3,2.1
			c-1.9,1-3.2,3-3.2,5.3c0,2.2,1.1,4.1,2.9,5.1c0,0.2,0,0.5,0,0.8c0,3.2,2.5,5.9,5.6,5.9c0.7,0,1.4-0.1,2-0.4c0.9,2,2.8,3.3,5.1,3.3
			c2.2,0,4.1-1.3,5.1-3.3c0.6,0.2,1.3,0.4,2,0.4c3.1,0,5.6-2.6,5.6-5.9c0-0.3,0-0.5,0-0.8C525.9,687.1,527,685.2,527,683L527,683z
			 M517.3,678.1l-6.4,9.5c-0.2,0.3-0.6,0.5-0.9,0.5c-0.2,0-0.4-0.1-0.6-0.2l-0.2-0.1l-3.5-3.5c-0.4-0.4-0.4-1.1,0-1.6
			c0.4-0.4,1.1-0.4,1.6,0l2.6,2.6l5.6-8.4c0.3-0.5,1-0.6,1.5-0.3C517.5,676.9,517.6,677.6,517.3,678.1L517.3,678.1z"/>
		<path class="st3" d="M527,398.3c0-2.3-1.3-4.3-3.2-5.3c0.2-0.6,0.4-1.3,0.4-2.1c0-3.2-2.5-5.9-5.6-5.9c-0.7,0-1.4,0.1-2,0.4
			c-0.9-2-2.8-3.3-5.1-3.3c-2.2,0-4.1,1.3-5.1,3.3c-0.6-0.2-1.3-0.4-2-0.4c-3.1,0-5.6,2.6-5.6,5.9c0,0.7,0.1,1.4,0.3,2.1
			c-1.9,1-3.2,3-3.2,5.3c0,2.2,1.1,4.1,2.9,5.1c0,0.2,0,0.5,0,0.8c0,3.2,2.5,5.9,5.6,5.9c0.7,0,1.4-0.1,2-0.4c0.9,2,2.8,3.3,5.1,3.3
			c2.2,0,4.1-1.3,5.1-3.3c0.6,0.2,1.3,0.4,2,0.4c3.1,0,5.6-2.6,5.6-5.9c0-0.3,0-0.5,0-0.8C525.9,402.5,527,400.5,527,398.3
			L527,398.3z M517.3,393.4l-6.4,9.6c-0.2,0.3-0.6,0.5-0.9,0.5c-0.2,0-0.4-0.1-0.6-0.2l-0.2-0.1l-3.5-3.5c-0.4-0.4-0.4-1.1,0-1.6
			c0.4-0.4,1.1-0.4,1.6,0l2.6,2.6l5.6-8.4c0.3-0.5,1-0.6,1.5-0.3C517.5,392.2,517.6,392.9,517.3,393.4L517.3,393.4z"/>
		<path class="st3" d="M527,569.2c0-2.3-1.3-4.3-3.2-5.3c0.2-0.6,0.4-1.3,0.4-2.1c0-3.2-2.5-5.9-5.6-5.9c-0.7,0-1.4,0.1-2,0.4
			c-0.9-2-2.8-3.3-5.1-3.3c-2.2,0-4.1,1.3-5.1,3.3c-0.6-0.2-1.3-0.4-2-0.4c-3.1,0-5.6,2.6-5.6,5.9c0,0.7,0.1,1.4,0.3,2.1
			c-1.9,1-3.2,3-3.2,5.3c0,2.2,1.1,4.1,2.9,5.1c0,0.2,0,0.5,0,0.8c0,3.2,2.5,5.9,5.6,5.9c0.7,0,1.4-0.1,2-0.4c0.9,2,2.8,3.3,5.1,3.3
			c2.2,0,4.1-1.3,5.1-3.3c0.6,0.2,1.3,0.4,2,0.4c3.1,0,5.6-2.6,5.6-5.9c0-0.3,0-0.5,0-0.8C525.9,573.3,527,571.4,527,569.2
			L527,569.2z M517.3,564.3l-6.4,9.5c-0.2,0.3-0.6,0.5-0.9,0.5c-0.2,0-0.4-0.1-0.6-0.2l-0.2-0.1l-3.5-3.5c-0.4-0.4-0.4-1.1,0-1.6
			c0.4-0.4,1.1-0.4,1.6,0l2.6,2.6l5.6-8.4c0.3-0.5,1-0.6,1.5-0.3C517.5,563.1,517.6,563.8,517.3,564.3L517.3,564.3z"/>
		<path class="st2" d="M527,739.9c0-2.3-1.3-4.3-3.2-5.3c0.2-0.6,0.4-1.3,0.4-2.1c0-3.2-2.5-5.9-5.6-5.9c-0.7,0-1.4,0.1-2,0.4
			c-0.9-2-2.8-3.3-5.1-3.3c-2.2,0-4.1,1.3-5.1,3.3c-0.6-0.2-1.3-0.4-2-0.4c-3.1,0-5.6,2.6-5.6,5.9c0,0.7,0.1,1.4,0.3,2.1
			c-1.9,1-3.2,3-3.2,5.3c0,2.2,1.1,4.1,2.9,5.1c0,0.2,0,0.5,0,0.8c0,3.2,2.5,5.9,5.6,5.9c0.7,0,1.4-0.1,2-0.4c0.9,2,2.8,3.3,5.1,3.3
			c2.2,0,4.1-1.3,5.1-3.3c0.6,0.2,1.3,0.4,2,0.4c3.1,0,5.6-2.6,5.6-5.9c0-0.3,0-0.5,0-0.8C525.9,744,527,742.1,527,739.9z
			 M517.3,735l-6.4,9.6c-0.2,0.3-0.6,0.5-0.9,0.5c-0.2,0-0.4-0.1-0.6-0.2l-0.2-0.1l-3.5-3.6c-0.4-0.4-0.4-1.1,0-1.6
			c0.4-0.4,1.1-0.4,1.6,0l2.6,2.6l5.6-8.4c0.3-0.5,1-0.6,1.5-0.3C517.5,733.8,517.6,734.5,517.3,735z"/>
		<path class="st2" d="M527,796.9c0-2.3-1.3-4.3-3.2-5.3c0.2-0.6,0.4-1.3,0.4-2.1c0-3.2-2.5-5.9-5.6-5.9c-0.7,0-1.4,0.1-2,0.4
			c-0.9-2-2.8-3.3-5.1-3.3c-2.2,0-4.1,1.3-5.1,3.3c-0.6-0.2-1.3-0.4-2-0.4c-3.1,0-5.6,2.6-5.6,5.9c0,0.7,0.1,1.4,0.3,2.1
			c-1.9,1-3.2,3-3.2,5.3c0,2.2,1.1,4.1,2.9,5.1c0,0.2,0,0.5,0,0.8c0,3.2,2.5,5.9,5.6,5.9c0.7,0,1.4-0.1,2-0.4c0.9,2,2.8,3.3,5.1,3.3
			c2.2,0,4.1-1.3,5.1-3.3c0.6,0.2,1.3,0.4,2,0.4c3.1,0,5.6-2.6,5.6-5.9c0-0.3,0-0.5,0-0.8C525.9,801,527,799.1,527,796.9z
			 M517.3,792l-6.4,9.5c-0.2,0.3-0.6,0.5-0.9,0.5c-0.2,0-0.4-0.1-0.6-0.2l-0.2-0.1l-3.5-3.6c-0.4-0.4-0.4-1.1,0-1.6
			c0.4-0.4,1.1-0.4,1.6,0l2.6,2.6l5.6-8.4c0.3-0.5,1-0.6,1.5-0.3C517.5,790.8,517.6,791.5,517.3,792z"/>
		<path class="st2" d="M641.1,284.4c0-2.3-1.3-4.3-3.2-5.3c0.2-0.6,0.4-1.3,0.4-2.1c0-3.2-2.5-5.9-5.6-5.9c-0.7,0-1.4,0.1-2,0.4
			c-0.9-2-2.8-3.3-5.1-3.3c-2.2,0-4.1,1.3-5.1,3.3c-0.6-0.2-1.3-0.4-2-0.4c-3.1,0-5.6,2.6-5.6,5.9c0,0.7,0.1,1.4,0.4,2.1
			c-1.9,1-3.2,3-3.2,5.3c0,2.2,1.2,4.1,2.9,5.1c0,0.2,0,0.5,0,0.8c0,3.2,2.5,5.9,5.6,5.9c0.7,0,1.3-0.1,2-0.4c0.9,2,2.8,3.3,5.1,3.3
			c2.2,0,4.1-1.3,5.1-3.3c0.6,0.2,1.3,0.4,2,0.4c3.1,0,5.6-2.6,5.6-5.9c0-0.3,0-0.5,0-0.8C639.9,288.5,641.1,286.6,641.1,284.4
			L641.1,284.4z M631.3,279.5l-6.4,9.6c-0.2,0.3-0.6,0.5-0.9,0.5c-0.2,0-0.4-0.1-0.6-0.2l-0.2-0.1l-3.6-3.5c-0.4-0.4-0.4-1.1,0-1.6
			c0.4-0.4,1.1-0.4,1.6,0l2.6,2.6l5.6-8.4c0.3-0.5,1-0.6,1.5-0.3C631.5,278.3,631.7,279,631.3,279.5L631.3,279.5z"/>
		<path class="st2" d="M641.1,455.3c0-2.3-1.3-4.3-3.2-5.3c0.2-0.6,0.4-1.3,0.4-2.1c0-3.2-2.5-5.9-5.6-5.9c-0.7,0-1.4,0.1-2,0.4
			c-0.9-2-2.8-3.3-5.1-3.3c-2.2,0-4.1,1.3-5.1,3.3c-0.6-0.2-1.3-0.4-2-0.4c-3.1,0-5.6,2.6-5.6,5.9c0,0.7,0.1,1.4,0.4,2.1
			c-1.9,1-3.2,3-3.2,5.3c0,2.2,1.2,4.1,2.9,5.1c0,0.2,0,0.5,0,0.8c0,3.2,2.5,5.9,5.6,5.9c0.7,0,1.3-0.1,2-0.4c0.9,2,2.8,3.3,5.1,3.3
			c2.2,0,4.1-1.3,5.1-3.3c0.6,0.2,1.3,0.4,2,0.4c3.1,0,5.6-2.6,5.6-5.9c0-0.3,0-0.5,0-0.8C639.9,459.4,641.1,457.5,641.1,455.3
			L641.1,455.3z M631.3,450.4l-6.4,9.6c-0.2,0.3-0.6,0.5-0.9,0.5c-0.2,0-0.4-0.1-0.6-0.2l-0.2-0.1l-3.6-3.5c-0.4-0.4-0.4-1.1,0-1.6
			c0.4-0.4,1.1-0.4,1.6,0l2.6,2.6l5.6-8.4c0.3-0.5,1-0.6,1.5-0.3C631.5,449.2,631.7,449.9,631.3,450.4L631.3,450.4z"/>
		<path class="st2" d="M641.1,626.1c0-2.3-1.3-4.3-3.2-5.3c0.2-0.6,0.4-1.3,0.4-2.1c0-3.2-2.5-5.9-5.6-5.9c-0.7,0-1.4,0.1-2,0.4
			c-0.9-2-2.8-3.3-5.1-3.3c-2.2,0-4.1,1.3-5.1,3.3c-0.6-0.2-1.3-0.4-2-0.4c-3.1,0-5.6,2.6-5.6,5.9c0,0.7,0.1,1.4,0.4,2.1
			c-1.9,1-3.2,3-3.2,5.3c0,2.2,1.2,4.1,2.9,5.1c0,0.2,0,0.5,0,0.8c0,3.2,2.5,5.9,5.6,5.9c0.7,0,1.3-0.1,2-0.4c0.9,2,2.8,3.3,5.1,3.3
			c2.2,0,4.1-1.3,5.1-3.3c0.6,0.2,1.3,0.4,2,0.4c3.1,0,5.6-2.6,5.6-5.9c0-0.3,0-0.5,0-0.8C639.9,630.2,641.1,628.3,641.1,626.1z
			 M631.3,621.2l-6.4,9.6c-0.2,0.3-0.6,0.5-0.9,0.5c-0.2,0-0.4-0.1-0.6-0.2l-0.2-0.1l-3.6-3.6c-0.4-0.4-0.4-1.1,0-1.6
			c0.4-0.4,1.1-0.4,1.6,0l2.6,2.6l5.6-8.4c0.3-0.5,1-0.6,1.5-0.3C631.5,620,631.7,620.7,631.3,621.2z"/>
		<path class="st2" d="M641.1,341.4c0-2.3-1.3-4.3-3.2-5.3c0.2-0.6,0.4-1.3,0.4-2.1c0-3.2-2.5-5.9-5.6-5.9c-0.7,0-1.4,0.1-2,0.4
			c-0.9-2-2.8-3.3-5.1-3.3c-2.2,0-4.1,1.3-5.1,3.3c-0.6-0.2-1.3-0.4-2-0.4c-3.1,0-5.6,2.6-5.6,5.9c0,0.7,0.1,1.4,0.4,2.1
			c-1.9,1-3.2,3-3.2,5.3c0,2.2,1.2,4.1,2.9,5.1c0,0.2,0,0.5,0,0.8c0,3.2,2.5,5.9,5.6,5.9c0.7,0,1.3-0.1,2-0.4c0.9,2,2.8,3.3,5.1,3.3
			c2.2,0,4.1-1.3,5.1-3.3c0.6,0.2,1.3,0.4,2,0.4c3.1,0,5.6-2.6,5.6-5.9c0-0.3,0-0.5,0-0.8C639.9,345.5,641.1,343.6,641.1,341.4
			L641.1,341.4z M631.3,336.5l-6.4,9.6c-0.2,0.3-0.6,0.5-0.9,0.5c-0.2,0-0.4-0.1-0.6-0.2l-0.2-0.1l-3.6-3.5c-0.4-0.4-0.4-1.1,0-1.6
			c0.4-0.4,1.1-0.4,1.6,0l2.6,2.6l5.6-8.4c0.3-0.5,1-0.6,1.5-0.3C631.5,335.3,631.7,336,631.3,336.5L631.3,336.5z"/>
		<path class="st3" d="M641.1,512.2c0-2.3-1.3-4.3-3.2-5.3c0.2-0.6,0.4-1.3,0.4-2.1c0-3.2-2.5-5.9-5.6-5.9c-0.7,0-1.4,0.1-2,0.4
			c-0.9-2-2.8-3.3-5.1-3.3c-2.2,0-4.1,1.3-5.1,3.3c-0.6-0.2-1.3-0.4-2-0.4c-3.1,0-5.6,2.6-5.6,5.9c0,0.7,0.1,1.4,0.4,2.1
			c-1.9,1-3.2,3-3.2,5.3c0,2.2,1.2,4.1,2.9,5.1c0,0.2,0,0.5,0,0.8c0,3.2,2.5,5.9,5.6,5.9c0.7,0,1.3-0.1,2-0.4c0.9,2,2.8,3.3,5.1,3.3
			c2.2,0,4.1-1.3,5.1-3.3c0.6,0.2,1.3,0.4,2,0.4c3.1,0,5.6-2.6,5.6-5.9c0-0.3,0-0.5,0-0.8C639.9,516.3,641.1,514.4,641.1,512.2
			L641.1,512.2z M631.3,507.3l-6.4,9.6c-0.2,0.3-0.6,0.5-0.9,0.5c-0.2,0-0.4-0.1-0.6-0.2l-0.2-0.1l-3.6-3.5c-0.4-0.4-0.4-1.1,0-1.6
			c0.4-0.4,1.1-0.4,1.6,0l2.6,2.6l5.6-8.4c0.3-0.5,1-0.6,1.5-0.3C631.5,506.1,631.7,506.8,631.3,507.3L631.3,507.3z"/>
		<path class="st2" d="M641.1,683c0-2.3-1.3-4.3-3.2-5.3c0.2-0.6,0.4-1.3,0.4-2.1c0-3.2-2.5-5.9-5.6-5.9c-0.7,0-1.4,0.1-2,0.4
			c-0.9-2-2.8-3.3-5.1-3.3c-2.2,0-4.1,1.3-5.1,3.3c-0.6-0.2-1.3-0.4-2-0.4c-3.1,0-5.6,2.6-5.6,5.9c0,0.7,0.1,1.4,0.4,2.1
			c-1.9,1-3.2,3-3.2,5.3c0,2.2,1.2,4.1,2.9,5.1c0,0.2,0,0.5,0,0.8c0,3.2,2.5,5.9,5.6,5.9c0.7,0,1.3-0.1,2-0.4c0.9,2,2.8,3.3,5.1,3.3
			c2.2,0,4.1-1.3,5.1-3.3c0.6,0.2,1.3,0.4,2,0.4c3.1,0,5.6-2.6,5.6-5.9c0-0.3,0-0.5,0-0.8C639.9,687.1,641.1,685.2,641.1,683
			L641.1,683z M631.3,678.1l-6.4,9.5c-0.2,0.3-0.6,0.5-0.9,0.5c-0.2,0-0.4-0.1-0.6-0.2l-0.2-0.1l-3.6-3.5c-0.4-0.4-0.4-1.1,0-1.6
			c0.4-0.4,1.1-0.4,1.6,0l2.6,2.6l5.6-8.4c0.3-0.5,1-0.6,1.5-0.3C631.5,676.9,631.7,677.6,631.3,678.1L631.3,678.1z"/>
		<path class="st2" d="M641.1,398.3c0-2.3-1.3-4.3-3.2-5.3c0.2-0.6,0.4-1.3,0.4-2.1c0-3.2-2.5-5.9-5.6-5.9c-0.7,0-1.4,0.1-2,0.4
			c-0.9-2-2.8-3.3-5.1-3.3c-2.2,0-4.1,1.3-5.1,3.3c-0.6-0.2-1.3-0.4-2-0.4c-3.1,0-5.6,2.6-5.6,5.9c0,0.7,0.1,1.4,0.4,2.1
			c-1.9,1-3.2,3-3.2,5.3c0,2.2,1.2,4.1,2.9,5.1c0,0.2,0,0.5,0,0.8c0,3.2,2.5,5.9,5.6,5.9c0.7,0,1.3-0.1,2-0.4c0.9,2,2.8,3.3,5.1,3.3
			c2.2,0,4.1-1.3,5.1-3.3c0.6,0.2,1.3,0.4,2,0.4c3.1,0,5.6-2.6,5.6-5.9c0-0.3,0-0.5,0-0.8C639.9,402.5,641.1,400.5,641.1,398.3
			L641.1,398.3z M631.3,393.4L625,403c-0.2,0.3-0.6,0.5-0.9,0.5c-0.2,0-0.4-0.1-0.6-0.2l-0.2-0.1l-3.6-3.5c-0.4-0.4-0.4-1.1,0-1.6
			c0.4-0.4,1.1-0.4,1.6,0l2.6,2.6l5.6-8.4c0.3-0.5,1-0.6,1.5-0.3C631.5,392.2,631.7,392.9,631.3,393.4L631.3,393.4z"/>
		<path class="st3" d="M641.1,569.2c0-2.3-1.3-4.3-3.2-5.3c0.2-0.6,0.4-1.3,0.4-2.1c0-3.2-2.5-5.9-5.6-5.9c-0.7,0-1.4,0.1-2,0.4
			c-0.9-2-2.8-3.3-5.1-3.3c-2.2,0-4.1,1.3-5.1,3.3c-0.6-0.2-1.3-0.4-2-0.4c-3.1,0-5.6,2.6-5.6,5.9c0,0.7,0.1,1.4,0.4,2.1
			c-1.9,1-3.2,3-3.2,5.3c0,2.2,1.2,4.1,2.9,5.1c0,0.2,0,0.5,0,0.8c0,3.2,2.5,5.9,5.6,5.9c0.7,0,1.3-0.1,2-0.4c0.9,2,2.8,3.3,5.1,3.3
			c2.2,0,4.1-1.3,5.1-3.3c0.6,0.2,1.3,0.4,2,0.4c3.1,0,5.6-2.6,5.6-5.9c0-0.3,0-0.5,0-0.8C639.9,573.3,641.1,571.4,641.1,569.2
			L641.1,569.2z M631.3,564.3l-6.4,9.5c-0.2,0.3-0.6,0.5-0.9,0.5c-0.2,0-0.4-0.1-0.6-0.2l-0.2-0.1l-3.6-3.5c-0.4-0.4-0.4-1.1,0-1.6
			c0.4-0.4,1.1-0.4,1.6,0l2.6,2.6l5.6-8.4c0.3-0.5,1-0.6,1.5-0.3C631.5,563.1,631.7,563.8,631.3,564.3L631.3,564.3z"/>
		<path class="st2" d="M641.1,739.9c0-2.3-1.3-4.3-3.2-5.3c0.2-0.6,0.4-1.3,0.4-2.1c0-3.2-2.5-5.9-5.6-5.9c-0.7,0-1.4,0.1-2,0.4
			c-0.9-2-2.8-3.3-5.1-3.3c-2.2,0-4.1,1.3-5.1,3.3c-0.6-0.2-1.3-0.4-2-0.4c-3.1,0-5.6,2.6-5.6,5.9c0,0.7,0.1,1.4,0.4,2.1
			c-1.9,1-3.2,3-3.2,5.3c0,2.2,1.2,4.1,2.9,5.1c0,0.2,0,0.5,0,0.8c0,3.2,2.5,5.9,5.6,5.9c0.7,0,1.3-0.1,2-0.4c0.9,2,2.8,3.3,5.1,3.3
			c2.2,0,4.1-1.3,5.1-3.3c0.6,0.2,1.3,0.4,2,0.4c3.1,0,5.6-2.6,5.6-5.9c0-0.3,0-0.5,0-0.8C639.9,744,641.1,742.1,641.1,739.9z
			 M631.3,735l-6.4,9.6c-0.2,0.3-0.6,0.5-0.9,0.5c-0.2,0-0.4-0.1-0.6-0.2l-0.2-0.1l-3.6-3.6c-0.4-0.4-0.4-1.1,0-1.6
			c0.4-0.4,1.1-0.4,1.6,0l2.6,2.6l5.6-8.4c0.3-0.5,1-0.6,1.5-0.3C631.5,733.8,631.7,734.5,631.3,735z"/>
		<path class="st2" d="M641.1,796.9c0-2.3-1.3-4.3-3.2-5.3c0.2-0.6,0.4-1.3,0.4-2.1c0-3.2-2.5-5.9-5.6-5.9c-0.7,0-1.4,0.1-2,0.4
			c-0.9-2-2.8-3.3-5.1-3.3c-2.2,0-4.1,1.3-5.1,3.3c-0.6-0.2-1.3-0.4-2-0.4c-3.1,0-5.6,2.6-5.6,5.9c0,0.7,0.1,1.4,0.4,2.1
			c-1.9,1-3.2,3-3.2,5.3c0,2.2,1.2,4.1,2.9,5.1c0,0.2,0,0.5,0,0.8c0,3.2,2.5,5.9,5.6,5.9c0.7,0,1.3-0.1,2-0.4c0.9,2,2.8,3.3,5.1,3.3
			c2.2,0,4.1-1.3,5.1-3.3c0.6,0.2,1.3,0.4,2,0.4c3.1,0,5.6-2.6,5.6-5.9c0-0.3,0-0.5,0-0.8C639.9,801,641.1,799.1,641.1,796.9z
			 M631.3,792l-6.4,9.5c-0.2,0.3-0.6,0.5-0.9,0.5c-0.2,0-0.4-0.1-0.6-0.2l-0.2-0.1l-3.6-3.6c-0.4-0.4-0.4-1.1,0-1.6
			c0.4-0.4,1.1-0.4,1.6,0l2.6,2.6l5.6-8.4c0.3-0.5,1-0.6,1.5-0.3C631.5,790.8,631.7,791.5,631.3,792z"/>
		<path class="st2" d="M755.1,284.4c0-2.3-1.3-4.3-3.2-5.3c0.2-0.6,0.4-1.3,0.4-2.1c0-3.2-2.5-5.9-5.6-5.9c-0.7,0-1.4,0.1-2,0.4
			c-0.9-2-2.8-3.3-5-3.3s-4.1,1.3-5.1,3.3c-0.6-0.2-1.3-0.4-2-0.4c-3.1,0-5.6,2.6-5.6,5.9c0,0.7,0.1,1.4,0.4,2.1
			c-1.9,1-3.2,3-3.2,5.3c0,2.2,1.1,4.1,2.9,5.1c0,0.2,0,0.5,0,0.8c0,3.2,2.5,5.9,5.6,5.9c0.7,0,1.4-0.1,2-0.4c0.9,2,2.8,3.3,5.1,3.3
			c2.2,0,4.1-1.3,5-3.3c0.6,0.2,1.3,0.4,2,0.4c3.1,0,5.6-2.6,5.6-5.9c0-0.3,0-0.5,0-0.8C754,288.5,755.1,286.6,755.1,284.4
			L755.1,284.4z M745.4,279.5l-6.4,9.6c-0.2,0.3-0.6,0.5-0.9,0.5c-0.2,0-0.4-0.1-0.6-0.2l-0.2-0.1l-3.6-3.5c-0.4-0.4-0.4-1.1,0-1.6
			c0.4-0.4,1.1-0.4,1.6,0l2.6,2.6l5.6-8.4c0.3-0.5,1-0.6,1.5-0.3C745.6,278.3,745.7,279,745.4,279.5L745.4,279.5z"/>
		<path class="st2" d="M755.1,455.3c0-2.3-1.3-4.3-3.2-5.3c0.2-0.6,0.4-1.3,0.4-2.1c0-3.2-2.5-5.9-5.6-5.9c-0.7,0-1.4,0.1-2,0.4
			c-0.9-2-2.8-3.3-5-3.3s-4.1,1.3-5.1,3.3c-0.6-0.2-1.3-0.4-2-0.4c-3.1,0-5.6,2.6-5.6,5.9c0,0.7,0.1,1.4,0.4,2.1
			c-1.9,1-3.2,3-3.2,5.3c0,2.2,1.1,4.1,2.9,5.1c0,0.2,0,0.5,0,0.8c0,3.2,2.5,5.9,5.6,5.9c0.7,0,1.4-0.1,2-0.4c0.9,2,2.8,3.3,5.1,3.3
			c2.2,0,4.1-1.3,5-3.3c0.6,0.2,1.3,0.4,2,0.4c3.1,0,5.6-2.6,5.6-5.9c0-0.3,0-0.5,0-0.8C754,459.4,755.1,457.5,755.1,455.3
			L755.1,455.3z M745.4,450.4l-6.4,9.6c-0.2,0.3-0.6,0.5-0.9,0.5c-0.2,0-0.4-0.1-0.6-0.2l-0.2-0.1l-3.6-3.5c-0.4-0.4-0.4-1.1,0-1.6
			c0.4-0.4,1.1-0.4,1.6,0l2.6,2.6l5.6-8.4c0.3-0.5,1-0.6,1.5-0.3C745.6,449.2,745.7,449.9,745.4,450.4L745.4,450.4z"/>
		<path class="st2" d="M755.1,626.1c0-2.3-1.3-4.3-3.2-5.3c0.2-0.6,0.4-1.3,0.4-2.1c0-3.2-2.5-5.9-5.6-5.9c-0.7,0-1.4,0.1-2,0.4
			c-0.9-2-2.8-3.3-5-3.3s-4.1,1.3-5.1,3.3c-0.6-0.2-1.3-0.4-2-0.4c-3.1,0-5.6,2.6-5.6,5.9c0,0.7,0.1,1.4,0.4,2.1
			c-1.9,1-3.2,3-3.2,5.3c0,2.2,1.1,4.1,2.9,5.1c0,0.2,0,0.5,0,0.8c0,3.2,2.5,5.9,5.6,5.9c0.7,0,1.4-0.1,2-0.4c0.9,2,2.8,3.3,5.1,3.3
			c2.2,0,4.1-1.3,5-3.3c0.6,0.2,1.3,0.4,2,0.4c3.1,0,5.6-2.6,5.6-5.9c0-0.3,0-0.5,0-0.8C754,630.2,755.1,628.3,755.1,626.1z
			 M745.4,621.2l-6.4,9.6c-0.2,0.3-0.6,0.5-0.9,0.5c-0.2,0-0.4-0.1-0.6-0.2l-0.2-0.1l-3.6-3.6c-0.4-0.4-0.4-1.1,0-1.6
			c0.4-0.4,1.1-0.4,1.6,0l2.6,2.6l5.6-8.4c0.3-0.5,1-0.6,1.5-0.3C745.6,620,745.7,620.7,745.4,621.2z"/>
		<path class="st2" d="M755.1,341.4c0-2.3-1.3-4.3-3.2-5.3c0.2-0.6,0.4-1.3,0.4-2.1c0-3.2-2.5-5.9-5.6-5.9c-0.7,0-1.4,0.1-2,0.4
			c-0.9-2-2.8-3.3-5-3.3s-4.1,1.3-5.1,3.3c-0.6-0.2-1.3-0.4-2-0.4c-3.1,0-5.6,2.6-5.6,5.9c0,0.7,0.1,1.4,0.4,2.1
			c-1.9,1-3.2,3-3.2,5.3c0,2.2,1.1,4.1,2.9,5.1c0,0.2,0,0.5,0,0.8c0,3.2,2.5,5.9,5.6,5.9c0.7,0,1.4-0.1,2-0.4c0.9,2,2.8,3.3,5.1,3.3
			c2.2,0,4.1-1.3,5-3.3c0.6,0.2,1.3,0.4,2,0.4c3.1,0,5.6-2.6,5.6-5.9c0-0.3,0-0.5,0-0.8C754,345.5,755.1,343.6,755.1,341.4
			L755.1,341.4z M745.4,336.5l-6.4,9.6c-0.2,0.3-0.6,0.5-0.9,0.5c-0.2,0-0.4-0.1-0.6-0.2l-0.2-0.1l-3.6-3.5c-0.4-0.4-0.4-1.1,0-1.6
			c0.4-0.4,1.1-0.4,1.6,0l2.6,2.6l5.6-8.4c0.3-0.5,1-0.6,1.5-0.3C745.6,335.3,745.7,336,745.4,336.5L745.4,336.5z"/>
		<path class="st2" d="M755.1,512.2c0-2.3-1.3-4.3-3.2-5.3c0.2-0.6,0.4-1.3,0.4-2.1c0-3.2-2.5-5.9-5.6-5.9c-0.7,0-1.4,0.1-2,0.4
			c-0.9-2-2.8-3.3-5-3.3s-4.1,1.3-5.1,3.3c-0.6-0.2-1.3-0.4-2-0.4c-3.1,0-5.6,2.6-5.6,5.9c0,0.7,0.1,1.4,0.4,2.1
			c-1.9,1-3.2,3-3.2,5.3c0,2.2,1.1,4.1,2.9,5.1c0,0.2,0,0.5,0,0.8c0,3.2,2.5,5.9,5.6,5.9c0.7,0,1.4-0.1,2-0.4c0.9,2,2.8,3.3,5.1,3.3
			c2.2,0,4.1-1.3,5-3.3c0.6,0.2,1.3,0.4,2,0.4c3.1,0,5.6-2.6,5.6-5.9c0-0.3,0-0.5,0-0.8C754,516.3,755.1,514.4,755.1,512.2
			L755.1,512.2z M745.4,507.3l-6.4,9.6c-0.2,0.3-0.6,0.5-0.9,0.5c-0.2,0-0.4-0.1-0.6-0.2l-0.2-0.1l-3.6-3.5c-0.4-0.4-0.4-1.1,0-1.6
			c0.4-0.4,1.1-0.4,1.6,0l2.6,2.6l5.6-8.4c0.3-0.5,1-0.6,1.5-0.3C745.6,506.1,745.7,506.8,745.4,507.3L745.4,507.3z"/>
		<path class="st2" d="M755.1,683c0-2.3-1.3-4.3-3.2-5.3c0.2-0.6,0.4-1.3,0.4-2.1c0-3.2-2.5-5.9-5.6-5.9c-0.7,0-1.4,0.1-2,0.4
			c-0.9-2-2.8-3.3-5-3.3s-4.1,1.3-5.1,3.3c-0.6-0.2-1.3-0.4-2-0.4c-3.1,0-5.6,2.6-5.6,5.9c0,0.7,0.1,1.4,0.4,2.1
			c-1.9,1-3.2,3-3.2,5.3c0,2.2,1.1,4.1,2.9,5.1c0,0.2,0,0.5,0,0.8c0,3.2,2.5,5.9,5.6,5.9c0.7,0,1.4-0.1,2-0.4c0.9,2,2.8,3.3,5.1,3.3
			c2.2,0,4.1-1.3,5-3.3c0.6,0.2,1.3,0.4,2,0.4c3.1,0,5.6-2.6,5.6-5.9c0-0.3,0-0.5,0-0.8C754,687.1,755.1,685.2,755.1,683L755.1,683z
			 M745.4,678.1l-6.4,9.5c-0.2,0.3-0.6,0.5-0.9,0.5c-0.2,0-0.4-0.1-0.6-0.2l-0.2-0.1l-3.6-3.5c-0.4-0.4-0.4-1.1,0-1.6
			c0.4-0.4,1.1-0.4,1.6,0l2.6,2.6l5.6-8.4c0.3-0.5,1-0.6,1.5-0.3C745.6,676.9,745.7,677.6,745.4,678.1L745.4,678.1z"/>
		<path class="st2" d="M755.1,398.3c0-2.3-1.3-4.3-3.2-5.3c0.2-0.6,0.4-1.3,0.4-2.1c0-3.2-2.5-5.9-5.6-5.9c-0.7,0-1.4,0.1-2,0.4
			c-0.9-2-2.8-3.3-5-3.3s-4.1,1.3-5.1,3.3c-0.6-0.2-1.3-0.4-2-0.4c-3.1,0-5.6,2.6-5.6,5.9c0,0.7,0.1,1.4,0.4,2.1
			c-1.9,1-3.2,3-3.2,5.3c0,2.2,1.1,4.1,2.9,5.1c0,0.2,0,0.5,0,0.8c0,3.2,2.5,5.9,5.6,5.9c0.7,0,1.4-0.1,2-0.4c0.9,2,2.8,3.3,5.1,3.3
			c2.2,0,4.1-1.3,5-3.3c0.6,0.2,1.3,0.4,2,0.4c3.1,0,5.6-2.6,5.6-5.9c0-0.3,0-0.5,0-0.8C754,402.5,755.1,400.5,755.1,398.3
			L755.1,398.3z M745.4,393.4L739,403c-0.2,0.3-0.6,0.5-0.9,0.5c-0.2,0-0.4-0.1-0.6-0.2l-0.2-0.1l-3.6-3.5c-0.4-0.4-0.4-1.1,0-1.6
			c0.4-0.4,1.1-0.4,1.6,0l2.6,2.6l5.6-8.4c0.3-0.5,1-0.6,1.5-0.3C745.6,392.2,745.7,392.9,745.4,393.4L745.4,393.4z"/>
		<path class="st2" d="M755.1,569.2c0-2.3-1.3-4.3-3.2-5.3c0.2-0.6,0.4-1.3,0.4-2.1c0-3.2-2.5-5.9-5.6-5.9c-0.7,0-1.4,0.1-2,0.4
			c-0.9-2-2.8-3.3-5-3.3s-4.1,1.3-5.1,3.3c-0.6-0.2-1.3-0.4-2-0.4c-3.1,0-5.6,2.6-5.6,5.9c0,0.7,0.1,1.4,0.4,2.1
			c-1.9,1-3.2,3-3.2,5.3c0,2.2,1.1,4.1,2.9,5.1c0,0.2,0,0.5,0,0.8c0,3.2,2.5,5.9,5.6,5.9c0.7,0,1.4-0.1,2-0.4c0.9,2,2.8,3.3,5.1,3.3
			c2.2,0,4.1-1.3,5-3.3c0.6,0.2,1.3,0.4,2,0.4c3.1,0,5.6-2.6,5.6-5.9c0-0.3,0-0.5,0-0.8C754,573.3,755.1,571.4,755.1,569.2
			L755.1,569.2z M745.4,564.3l-6.4,9.5c-0.2,0.3-0.6,0.5-0.9,0.5c-0.2,0-0.4-0.1-0.6-0.2l-0.2-0.1l-3.6-3.5c-0.4-0.4-0.4-1.1,0-1.6
			c0.4-0.4,1.1-0.4,1.6,0l2.6,2.6l5.6-8.4c0.3-0.5,1-0.6,1.5-0.3C745.6,563.1,745.7,563.8,745.4,564.3L745.4,564.3z"/>
		<path class="st2" d="M755.1,739.9c0-2.3-1.3-4.3-3.2-5.3c0.2-0.6,0.4-1.3,0.4-2.1c0-3.2-2.5-5.9-5.6-5.9c-0.7,0-1.4,0.1-2,0.4
			c-0.9-2-2.8-3.3-5-3.3s-4.1,1.3-5.1,3.3c-0.6-0.2-1.3-0.4-2-0.4c-3.1,0-5.6,2.6-5.6,5.9c0,0.7,0.1,1.4,0.4,2.1
			c-1.9,1-3.2,3-3.2,5.3c0,2.2,1.1,4.1,2.9,5.1c0,0.2,0,0.5,0,0.8c0,3.2,2.5,5.9,5.6,5.9c0.7,0,1.4-0.1,2-0.4c0.9,2,2.8,3.3,5.1,3.3
			c2.2,0,4.1-1.3,5-3.3c0.6,0.2,1.3,0.4,2,0.4c3.1,0,5.6-2.6,5.6-5.9c0-0.3,0-0.5,0-0.8C754,744,755.1,742.1,755.1,739.9z
			 M745.4,735l-6.4,9.6c-0.2,0.3-0.6,0.5-0.9,0.5c-0.2,0-0.4-0.1-0.6-0.2l-0.2-0.1l-3.6-3.6c-0.4-0.4-0.4-1.1,0-1.6
			c0.4-0.4,1.1-0.4,1.6,0l2.6,2.6l5.6-8.4c0.3-0.5,1-0.6,1.5-0.3C745.6,733.8,745.7,734.5,745.4,735z"/>
		<path class="st2" d="M755.1,796.9c0-2.3-1.3-4.3-3.2-5.3c0.2-0.6,0.4-1.3,0.4-2.1c0-3.2-2.5-5.9-5.6-5.9c-0.7,0-1.4,0.1-2,0.4
			c-0.9-2-2.8-3.3-5-3.3s-4.1,1.3-5.1,3.3c-0.6-0.2-1.3-0.4-2-0.4c-3.1,0-5.6,2.6-5.6,5.9c0,0.7,0.1,1.4,0.4,2.1
			c-1.9,1-3.2,3-3.2,5.3c0,2.2,1.1,4.1,2.9,5.1c0,0.2,0,0.5,0,0.8c0,3.2,2.5,5.9,5.6,5.9c0.7,0,1.4-0.1,2-0.4c0.9,2,2.8,3.3,5.1,3.3
			c2.2,0,4.1-1.3,5-3.3c0.6,0.2,1.3,0.4,2,0.4c3.1,0,5.6-2.6,5.6-5.9c0-0.3,0-0.5,0-0.8C754,801,755.1,799.1,755.1,796.9z
			 M745.4,792l-6.4,9.5c-0.2,0.3-0.6,0.5-0.9,0.5c-0.2,0-0.4-0.1-0.6-0.2l-0.2-0.1l-3.6-3.6c-0.4-0.4-0.4-1.1,0-1.6
			c0.4-0.4,1.1-0.4,1.6,0l2.6,2.6l5.6-8.4c0.3-0.5,1-0.6,1.5-0.3C745.6,790.8,745.7,791.5,745.4,792z"/>
		<path class="st4" d="M311.6,254.7h0.5h56.4h0.5h0.5h55.9h0.5h0.5h55.9h0.5h0.5h55.9h0.5h0.5h55.9h0.5h0.5h55.9h0.5h0.5h56.4h0.5
			v0.2h56.6h0.5v0.5v56.4v0.5v0.5v55.8v0.5v0.5v55.8v0.5v0.5v55.8v0.5v0.5v55.8v0.5v0.5v55.8v0.5v0.5v55.8v0.5v0.5v55.8v0.5v0.5
			v55.8v0.5v0.5v56.4v0.5h-0.5h-56.9h-0.5v-0.2h-56.1h-0.5h-0.5h-55.9h-0.5h-0.5h-55.9h-0.5h-0.5h-55.9h-0.5h-0.5h-55.9H426h-0.5
			h-55.9h-0.5h-0.5h-56.4h-0.5v-0.5V768v-0.5v-0.5v-55.8v-0.5V710v-55.8v-0.5v-0.5v-55.8v-0.5v-0.5v-55.8v-0.5v-0.5v-55.8v-0.5v-0.5
			v-55.8V426v-0.5v-55.8v-0.5v-0.5v-55.8v-0.5v-0.5v-56.4V254.7z M312.7,766.9h55.9v-55.8h-55.9V766.9z M369.6,768v55.8h55.9V768
			H369.6z M312.7,768v55.8h55.9V768H312.7z M368.5,710h-55.9v-55.8h55.9V710z M369.6,766.9v-55.8h55.9v55.8H369.6z M312.7,653.1
			h55.9v-55.8h-55.9V653.1z M369.6,654.1V710h55.9v-55.8H369.6z M368.5,596.2h-55.9v-55.8h55.9V596.2z M369.6,653.1v-55.8h55.9v55.8
			H369.6z M312.7,539.2h55.9v-55.8h-55.9V539.2z M369.6,540.3v55.8h55.9v-55.8H369.6z M368.5,482.3h-55.9v-55.8h55.9V482.3z
			 M369.6,539.2v-55.8h55.9v55.8H369.6z M312.7,425.4h55.9v-55.8h-55.9V425.4z M369.6,426.5v55.8h55.9v-55.8H369.6z M368.5,368.5
			h-55.9v-55.8h55.9V368.5z M369.6,425.4v-55.8h55.9v55.8H369.6z M312.7,311.6h55.9v-55.8h-55.9V311.6z M369.6,312.7v55.8h55.9
			v-55.8H369.6z M369.6,311.6v-55.8h55.9v55.8H369.6z M426.5,768v55.8h55.9V768H426.5z M426.5,766.9v-55.8h55.9v55.8H426.5z
			 M426.5,654.1V710h55.9v-55.8H426.5z M426.5,653.1v-55.8h55.9v55.8H426.5z M426.5,540.3v55.8h55.9v-55.8H426.5z M426.5,539.2
			v-55.8h55.9v55.8H426.5z M426.5,426.5v55.8h55.9v-55.8H426.5z M426.5,425.4v-55.8h55.9v55.8H426.5z M426.5,312.7v55.8h55.9v-55.8
			H426.5z M426.5,311.6v-55.8h55.9v55.8H426.5z M483.5,768v55.8h55.9V768H483.5z M483.5,766.9v-55.8h55.9v55.8H483.5z M483.5,654.1
			V710h55.9v-55.8H483.5z M483.5,653.1v-55.8h55.9v55.8H483.5z M483.5,540.3v55.8h55.9v-55.8H483.5z M483.5,539.2v-55.8h55.9v55.8
			H483.5z M483.5,426.5v55.8h55.9v-55.8H483.5z M483.5,425.4v-55.8h55.9v55.8H483.5z M483.5,312.7v55.8h55.9v-55.8H483.5z
			 M483.5,311.6v-55.8h55.9v55.8H483.5z M540.4,768v55.8h55.9V768H540.4z M540.4,766.9v-55.8h55.9v55.8H540.4z M540.4,654.1V710
			h55.9v-55.8H540.4z M540.4,653.1v-55.8h55.9v55.8H540.4z M540.4,540.3v55.8h55.9v-55.8H540.4z M540.4,539.2v-55.8h55.9v55.8H540.4
			z M540.4,426.5v55.8h55.9v-55.8H540.4z M540.4,425.4v-55.8h55.9v55.8H540.4z M540.4,312.7v55.8h55.9v-55.8H540.4z M540.4,311.6
			v-55.8h55.9v55.8H540.4z M597.4,768v55.8h55.9V768H597.4z M597.4,766.9v-55.8h55.9v55.8H597.4z M597.4,654.1V710h55.9v-55.8H597.4
			z M597.4,653.1v-55.8h55.9v55.8H597.4z M597.4,540.3v55.8h55.9v-55.8H597.4z M597.4,539.2v-55.8h55.9v55.8H597.4z M597.4,426.5
			v55.8h55.9v-55.8H597.4z M597.4,425.4v-55.8h55.9v55.8H597.4z M597.4,312.7v55.8h55.9v-55.8H597.4z M597.4,311.6v-55.8h55.9v55.8
			H597.4z M654.3,768v55.8h55.9V768H654.3z M654.3,766.9v-55.8h55.9v55.8H654.3z M654.3,654.1V710h55.9v-55.8H654.3z M654.3,653.1
			v-55.8h55.9v55.8H654.3z M654.3,540.3v55.8h55.9v-55.8H654.3z M654.3,539.2v-55.8h55.9v55.8H654.3z M654.3,426.5v55.8h55.9v-55.8
			H654.3z M654.3,425.4v-55.8h55.9v55.8H654.3z M654.3,312.7v55.8h55.9v-55.8H654.3z M654.3,311.6v-55.8h55.9v55.8H654.3z
			 M767.3,767.1v-55.8h-55.9v55.8H767.3z M767.3,768.2h-55.9V824h55.9V768.2z M767.3,710.2h-55.9v-55.8h55.9V710.2z M767.3,653.3
			v-55.8h-55.9v55.8H767.3z M767.3,596.4h-55.9v-55.8h55.9V596.4z M767.3,539.5v-55.8h-55.9v55.8H767.3z M767.3,482.6h-55.9v-55.8
			h55.9V482.6z M767.3,425.7v-55.8h-55.9v55.8H767.3z M767.3,368.8h-55.9v-55.8h55.9V368.8z M767.3,311.9V256h-55.9v55.8H767.3z"/>
	</g>
</g>
</svg>
